<?xml version="1.0" encoding="utf-8"?>
<!-- Generator: Adobe Illustrator 28.0.0, SVG Export Plug-In . SVG Version: 6.00 Build 0)  -->
<svg version="1.1" id="Layer_1" xmlns="http://www.w3.org/2000/svg" xmlns:xlink="http://www.w3.org/1999/xlink" x="0px" y="0px"
	 viewBox="0 0 1440 1440" style="enable-background:new 0 0 1440 1440;" xml:space="preserve">
<style type="text/css">
	.st0{clip-path:url(#SVGID_00000080190169973721347840000001622614980270806421_);}
	.st1{fill:#85C4D4;}
	.st2{fill:url(#SVGID_00000026862183079889220570000002831597729076089731_);}
	.st3{fill:url(#SVGID_00000102508273677298520310000011643944365952007067_);}
	.st4{fill:url(#SVGID_00000146475866863053615000000017689669005839967401_);}
	.st5{fill:url(#SVGID_00000109747015050409727510000003758990076212045502_);}
	.st6{fill:url(#SVGID_00000016758792407821000720000008234383228950698631_);}
	.st7{fill:url(#SVGID_00000096744806363631603450000009753822155359616950_);}
	.st8{fill:#92C2FF;}
	.st9{fill:url(#SVGID_00000163040058565321261830000010935091700528498822_);}
	.st10{fill:url(#SVGID_00000158744526262286367410000014980564707033444240_);}
	.st11{fill:url(#SVGID_00000029012903935431452830000008700721114790346665_);}
	.st12{fill:url(#SVGID_00000016762691206067939100000009726156430217694871_);}
	.st13{fill:url(#SVGID_00000077293225964979386910000014229509065140620176_);}
	.st14{fill:url(#SVGID_00000054245372018358215530000013490229976710366095_);}
	.st15{fill:url(#SVGID_00000174576666203381025340000005317531196085979545_);}
	.st16{fill:url(#SVGID_00000106858250114150507860000008531572011611964074_);}
	.st17{fill:url(#SVGID_00000176006354968951717410000011182991280033147548_);}
	.st18{fill:url(#SVGID_00000095301932122375963320000001123490167875745412_);}
	.st19{fill:url(#SVGID_00000066473442875270630010000012773654630998655109_);}
	.st20{fill:url(#SVGID_00000050658476124222679900000009467599804832361889_);}
	.st21{fill:url(#SVGID_00000154389924027997043930000014144879923049271190_);}
	.st22{fill:url(#SVGID_00000105410208373896431150000013077698021015627711_);}
	.st23{fill:url(#SVGID_00000040573750497627582030000015317257258955136929_);}
	.st24{fill:url(#SVGID_00000075857033958729926560000007202029877661739918_);}
	.st25{fill:url(#SVGID_00000008141169600196821560000017845000054902996152_);}
	.st26{fill:#3FF1B1;}
	.st27{fill:url(#SVGID_00000122712840485140068810000006978951872853965728_);}
	.st28{fill:url(#SVGID_00000165923475884813625810000004427745852381045932_);}
	.st29{fill:url(#SVGID_00000111870512219979113600000005175362042530672012_);}
	.st30{fill:#E34B74;}
	.st31{fill:url(#SVGID_00000183224659560587718890000005024737371188166812_);}
	.st32{fill:url(#SVGID_00000114773874756771293780000015190915085759373215_);}
	.st33{fill:url(#SVGID_00000076584233293873363420000017121471239235787401_);}
	.st34{fill:url(#SVGID_00000161610528582671695440000006837671411656650931_);}
	.st35{fill:url(#SVGID_00000153699117085165378680000000153620418945024928_);}
	.st36{fill:url(#SVGID_00000132089463791734426340000015909984970167790994_);}
	.st37{fill:url(#SVGID_00000000185376503089027800000012274144377658898343_);}
	.st38{fill:url(#SVGID_00000045590971766521172060000014720850298974805422_);}
	.st39{fill:url(#SVGID_00000103954150906768424970000006791427731736252585_);}
	.st40{fill:url(#SVGID_00000141434907609502012870000013765108485815638178_);}
	.st41{fill:url(#SVGID_00000114775600296161310950000016292574834350700684_);}
	.st42{fill:url(#SVGID_00000079471943512768888510000012065880814905026448_);}
	.st43{fill:#EF4437;}
	.st44{fill:url(#SVGID_00000034783103685288108380000005579817495368159115_);}
	.st45{fill:url(#SVGID_00000076599259318031216350000010541969414204823189_);}
	.st46{fill:url(#SVGID_00000120534647570692372440000014595348617168806802_);}
	.st47{fill:url(#SVGID_00000071524907823311866270000012849179476423344794_);}
	.st48{fill:url(#SVGID_00000001625843126024836460000000485149738615408823_);}
	.st49{fill:url(#SVGID_00000089571560612550179850000009406527233414281638_);}
	.st50{fill:url(#SVGID_00000053510768605165986440000008206522270882068663_);}
	.st51{fill:url(#SVGID_00000023276131081477178500000014679806575946643898_);}
	.st52{fill:url(#SVGID_00000163051887965464996410000003901102784990017416_);}
	.st53{fill:url(#SVGID_00000124162909880680013930000012944090075117220747_);}
	.st54{fill:url(#SVGID_00000018219335679352952330000016889304887201429422_);}
	.st55{fill:url(#SVGID_00000116196591146210351510000010194615540580868484_);}
	.st56{fill:url(#SVGID_00000091004473402685840290000010810373185795730582_);}
	.st57{fill:url(#SVGID_00000172421436498762294070000006284062827419786154_);}
	.st58{fill:url(#SVGID_00000159465262167072860330000017588720006249541550_);}
	.st59{fill:url(#SVGID_00000031924483549830906120000018414920419961207227_);}
	.st60{fill:url(#SVGID_00000116948004614978503640000003413772483471752087_);}
	.st61{fill:url(#SVGID_00000180325187948635740410000006073274975012086927_);}
	.st62{fill:url(#SVGID_00000021120340857155707360000003696617440724336559_);}
	.st63{fill:url(#SVGID_00000028321266208877749320000000149795339907977381_);}
	.st64{fill:url(#SVGID_00000178908334687192107030000000000345467268791715_);}
</style>
<g>
	<g>
		<defs>
			<path id="SVGID_1_" d="M132.24,859.82h1237.31c17.29,0,31.3-14.01,31.3-31.3V449.95c0-17.29-14.01-31.3-31.3-31.3H132.24
				c-17.29,0-31.3,14.01-31.3,31.3v378.57C100.94,845.81,114.95,859.82,132.24,859.82z"/>
		</defs>
		<clipPath id="SVGID_00000067208818274806666160000002214883240936168105_">
			<use xlink:href="#SVGID_1_"  style="overflow:visible;"/>
		</clipPath>
		<g style="clip-path:url(#SVGID_00000067208818274806666160000002214883240936168105_);">
			<path class="st1" d="M821.69,1328.82c0,13.77,97.67,24.93,218.16,24.93c120.48,0,218.16-11.16,218.16-24.93
				c0-13.77-97.67-24.93-218.16-24.93C919.37,1303.88,821.69,1315.04,821.69,1328.82z"/>
			<path class="st1" d="M624.81,1337.73c0,11.91,59.55,21.57,133.02,21.57s133.02-9.66,133.02-21.57
				c0-11.91-59.55-21.57-133.02-21.57S624.81,1325.82,624.81,1337.73z"/>
			<ellipse class="st1" cx="543.36" cy="1339.34" rx="214" ry="21.57"/>
			<g>
				
					<linearGradient id="SVGID_00000016067908432180803030000004874552795406002580_" gradientUnits="userSpaceOnUse" x1="520.127" y1="553.8751" x2="571.2816" y2="553.8751" gradientTransform="matrix(-0.756 0.6546 -0.6546 -0.756 1882.1044 1248.1727)">
					<stop  offset="0" style="stop-color:#915716"/>
					<stop  offset="0.4709" style="stop-color:#9F6319"/>
					<stop  offset="1" style="stop-color:#AB6D1B"/>
				</linearGradient>
				<path style="fill:url(#SVGID_00000016067908432180803030000004874552795406002580_);" d="M1055.9,1111.06
					c-2.45-1.36-5.01-2.45-7.77-2.75c-24.41-2.73-13.58,37.28-2.73,45.94c14.01,11.19,26.89,23.51,41.44,34.38
					c26.19,19.58,52.39,39.16,78.58,58.74c2.72,2.03,5.44,4.06,8.16,6.1c5.4,4.04,10.07,4.12,14.03-1.46
					c7.87-11.11-37.94-50.73-43.84-58.71c-23.49-31.76-50.38-58.22-84.11-79.94C1058.43,1112.56,1057.18,1111.77,1055.9,1111.06z"/>
				
					<linearGradient id="SVGID_00000065793060140293274800000018208877344283860154_" gradientUnits="userSpaceOnUse" x1="432.8289" y1="475.7576" x2="499.7138" y2="475.7576" gradientTransform="matrix(-0.4675 0.884 -0.884 -0.4675 1815.8208 1081.2148)">
					<stop  offset="0" style="stop-color:#915716"/>
					<stop  offset="0.4709" style="stop-color:#9F6319"/>
					<stop  offset="1" style="stop-color:#AB6D1B"/>
				</linearGradient>
				<path style="fill:url(#SVGID_00000065793060140293274800000018208877344283860154_);" d="M1197.02,1243.6
					c-7.7-3.78-17.9-7.36-25.92-7.46c1.98,0.03,3.14,63.97,3.3,68.96c0.02,0.68,0.05,1.38,0.37,1.97c0.64,1.19,2.29,1.52,3.57,1.07
					c1.28-0.44,2.26-1.47,3.15-2.48c5.15-5.82,9-12.39,11.96-19.54c1.85-4.46,2.48-11.37,5.09-16.69c2.26-4.53,6.09-8.56,6.42-13.61
					C1205.3,1250.68,1201.64,1245.88,1197.02,1243.6z"/>
			</g>
			
				<linearGradient id="SVGID_00000070078185577083788320000011762954004421819277_" gradientUnits="userSpaceOnUse" x1="687.6814" y1="377.0898" x2="756.3375" y2="377.0898" gradientTransform="matrix(-0.9659 0.259 -0.259 -0.9659 1841.8636 1252.58)">
				<stop  offset="0" style="stop-color:#915716"/>
				<stop  offset="0.4709" style="stop-color:#9F6319"/>
				<stop  offset="1" style="stop-color:#AB6D1B"/>
			</linearGradient>
			<path style="fill:url(#SVGID_00000070078185577083788320000011762954004421819277_);" d="M1071.01,1103.95
				c-0.92,19.52-4.67,46.25-21.27,38.66c-9.12-4.18-18.09-21.78-21.82-30.51c-6.47-15.17-17.55-33.33-19.67-49.88
				c-0.63-4.98-0.95-10.15,0.62-14.91c1.44-4.37,4.38-8.06,7.26-11.66c3.97-4.96,7.94-9.92,11.91-14.89
				c12.14-15.16,31.88-29.48,38.6-3.97c5.89,22.36,5.85,46.59,4.77,69.52C1071.29,1088.98,1071.39,1095.84,1071.01,1103.95z"/>
			<g>
				
					<linearGradient id="SVGID_00000029746433200451994630000015328844258096110511_" gradientUnits="userSpaceOnUse" x1="1015.583" y1="136.7703" x2="1062.3567" y2="136.7703" gradientTransform="matrix(-1 0 0 -1 1700.9454 1440)">
					<stop  offset="0" style="stop-color:#915716"/>
					<stop  offset="0.4709" style="stop-color:#9F6319"/>
					<stop  offset="1" style="stop-color:#AB6D1B"/>
				</linearGradient>
				<path style="fill:url(#SVGID_00000029746433200451994630000015328844258096110511_);" d="M677.48,1281.18
					c-0.3-1.13-0.69-2.35-1.67-2.97c-0.75-0.48-1.69-0.5-2.58-0.5c-11.55-0.07-23.09-0.08-34.64-0.02
					c1.07,16.76,2.14,33.52,3.22,50.28c10.53,1.22,38.27,2.97,43.03-9.98c1.7-4.64-1.17-9.1-2.34-13.54
					C680.5,1296.78,679.55,1288.86,677.48,1281.18z"/>
				
					<linearGradient id="SVGID_00000072994652427867663190000017818749040888039087_" gradientUnits="userSpaceOnUse" x1="1106.7495" y1="150.5383" x2="1213.3063" y2="150.5383" gradientTransform="matrix(-0.9651 0.2618 -0.2618 -0.9651 1840.085 1164.8553)">
					<stop  offset="0" style="stop-color:#578BCF"/>
					<stop  offset="0.5504" style="stop-color:#5777CF"/>
					<stop  offset="1" style="stop-color:#576BCF"/>
				</linearGradient>
				<path style="fill:url(#SVGID_00000072994652427867663190000017818749040888039087_);" d="M640.02,1308.67
					c1.68,0.13,3.32,0.91,4.39,2.23c0.95,1.17,1.44,2.65,2.26,3.91c2.92,4.5,9.07,5.32,14.43,5.49c4.71,0.14,9.77,0.01,13.61-2.72
					c3.84-2.73,5.42-9.03,1.89-12.15c3.22-3.61,9.18-4.36,13.2-1.66c2.75,1.85,4.41,4.9,6.66,7.35
					c10.88,11.86,27.12,3.98,38.11,12.98c2.51,2.06,4.56,5.66,2.87,8.43c-1.03,1.69-3.1,2.41-5.01,2.95
					c-31.18,8.8-66.62,7.03-98.66,5.17c-9.5-0.55-3.14-28.54,3.31-31.48C637.99,1308.74,639.01,1308.58,640.02,1308.67z"/>
				
					<linearGradient id="SVGID_00000176004598023694442740000017276273085879424173_" gradientUnits="userSpaceOnUse" x1="1055.5542" y1="278.2365" x2="1185.239" y2="278.2365" gradientTransform="matrix(-0.9992 0.0382 -0.0382 -0.9992 1746.2024 1361.626)">
					<stop  offset="0" style="stop-color:#578BCF"/>
					<stop  offset="0.5504" style="stop-color:#5777CF"/>
					<stop  offset="1" style="stop-color:#576BCF"/>
				</linearGradient>
				<path style="fill:url(#SVGID_00000176004598023694442740000017276273085879424173_);" d="M669.37,1009.84
					c15.24,92.06,14.71,181.17,7.54,274.81c-47.12,14.19-40.68-18.34-49.4-52.31c-4.83-18.81-11.25-37.17-17.14-55.66
					c-22.36-70.24-41.03-140.85-65.32-210.82c35.45,1.36,70.9,2.72,106.36,4.07c3.32,0.12,6.95,0.38,9.34,2.68
					c1.97,1.89,2.61,4.75,3.15,7.42C665.91,990.02,667.73,999.95,669.37,1009.84z"/>
				<path class="st8" d="M682.57,1275.21c0-0.42-0.01-0.87-0.27-1.2c-0.34-0.43-0.96-0.47-1.51-0.47
					c-16.52-0.13-33.05-0.26-49.57-0.39c-0.18,8.3-0.37,16.6-0.56,24.91c-0.03,1.56,44.02,6.3,49.52,4.52
					C688.69,1299.8,682.54,1282.12,682.57,1275.21z"/>
			</g>
			<g>
				
					<linearGradient id="SVGID_00000096029844705551667700000005960892977913917603_" gradientUnits="userSpaceOnUse" x1="1237.1454" y1="147.2732" x2="1284.9377" y2="147.2732" gradientTransform="matrix(-1 0 0 -1 1700.9454 1440)">
					<stop  offset="0" style="stop-color:#915716"/>
					<stop  offset="0.4709" style="stop-color:#9F6319"/>
					<stop  offset="1" style="stop-color:#AB6D1B"/>
				</linearGradient>
				<path style="fill:url(#SVGID_00000096029844705551667700000005960892977913917603_);" d="M463.8,1276.7
					c-5.67-0.68-11.4-1.37-16.75-3.35c-8.42-3.12-16.71-9.48-25.38-7.17c0.19,15.28-1.66,30.59-5.48,45.39
					c-0.21,0.82-0.37,1.83,0.27,2.38c0.26,0.22,0.6,0.31,0.93,0.4c8.96,2.32,30.49,9.79,38.21,1.93
					C459.52,1312.27,463.2,1276.63,463.8,1276.7z"/>
				
					<linearGradient id="SVGID_00000111871914920821350530000017643271271092238999_" gradientUnits="userSpaceOnUse" x1="1339.2355" y1="187.3804" x2="1414.085" y2="187.3804" gradientTransform="matrix(-0.977 0.2129 -0.2129 -0.977 1808.1998 1206.1073)">
					<stop  offset="0" style="stop-color:#578BCF"/>
					<stop  offset="0.5504" style="stop-color:#5777CF"/>
					<stop  offset="1" style="stop-color:#576BCF"/>
				</linearGradient>
				<path style="fill:url(#SVGID_00000111871914920821350530000017643271271092238999_);" d="M418.89,1290.32
					c7.21-7.7,15.1-11.81,27-2.14c12.41,10.1,17.95,35.37,20.18,50.43c-23.44,2.18-48.8-1.1-72.53-1.97
					c-1.13-0.04-2.33-0.11-3.24-0.78c-0.76-0.57-1.17-1.48-1.46-2.38c-2.66-8.5,4.39-16.81,11.42-22.28
					C407.29,1305.72,412.86,1296.77,418.89,1290.32z"/>
				
					<linearGradient id="SVGID_00000177461263832422469680000012227554931819354259_" gradientUnits="userSpaceOnUse" x1="1055.0586" y1="187.0216" x2="1244.7244" y2="187.0216" gradientTransform="matrix(-0.9674 -0.2532 0.2532 -0.9674 1544.2329 1584.974)">
					<stop  offset="0" style="stop-color:#578BCF"/>
					<stop  offset="0.5504" style="stop-color:#5777CF"/>
					<stop  offset="1" style="stop-color:#576BCF"/>
				</linearGradient>
				<path style="fill:url(#SVGID_00000177461263832422469680000012227554931819354259_);" d="M562.19,964.25
					c11.96,2.79,24.08,4.9,36.28,6.3c2.38,0.28,4.87,0.56,6.88,1.86c3.25,2.1,4.43,6.31,4.59,10.17
					c0.58,14.11-8.97,26.82-20.26,35.3c-11.28,8.48-24.53,14.01-36.13,22.05c-31.36,21.74-33.94,50.4-42.18,84.7
					c-3.8,15.82-38.57,154.56-50.87,154.55c-49.21-0.08-33.61-29.35-32.11-64.38c0.83-19.4,0.01-38.83-0.27-58.23
					c-1.01-72.63-4.47-147.44-0.86-219.82c14.6,2.15,26,14.89,40.43,15.89c10.5,0.73,20.57-6.3,31.44-6.06
					c10.03,0.22,19.89,4.49,29.2,7.78C539.42,958.28,550.73,961.58,562.19,964.25z"/>
				<path class="st8" d="M472.32,1268.84c0.12-0.4,0.24-0.84,0.09-1.23c-0.21-0.51-0.79-0.72-1.31-0.89
					c-15.78-4.92-31.56-9.83-47.33-14.75c-2.59,7.89-5.17,15.78-7.75,23.67c-0.49,1.49,40.31,18.79,46.08,18.68
					C471.05,1294.15,470.29,1275.44,472.32,1268.84z"/>
			</g>
			<g>
				<g>
					
						<linearGradient id="SVGID_00000169552356761487827050000009613234258669589142_" gradientUnits="userSpaceOnUse" x1="929.094" y1="541.4938" x2="929.094" y2="543.0777" gradientTransform="matrix(-0.9984 -0.0568 0.0568 -0.9984 1637.2542 1480.2629)">
						<stop  offset="1.600000e-07" style="stop-color:#FFFFFF;stop-opacity:0"/>
						<stop  offset="1" style="stop-color:#FFFFFF"/>
					</linearGradient>
					<path style="fill:url(#SVGID_00000169552356761487827050000009613234258669589142_);" d="M741.01,885.31l-2.52,0.22
						c1.34,0.36,2.64,0.86,3.89,1.44C741.93,886.42,741.47,885.87,741.01,885.31z"/>
					<g>
						
							<linearGradient id="SVGID_00000029744426760296030650000000414151081130763654_" gradientUnits="userSpaceOnUse" x1="1052.001" y1="746.0549" x2="1165.3417" y2="746.0549" gradientTransform="matrix(-0.9984 -0.0568 0.0568 -0.9984 1637.2542 1480.2629)">
							<stop  offset="0" style="stop-color:#915716"/>
							<stop  offset="0.4709" style="stop-color:#9F6319"/>
							<stop  offset="1" style="stop-color:#AB6D1B"/>
						</linearGradient>
						<path style="fill:url(#SVGID_00000029744426760296030650000000414151081130763654_);" d="M518.94,699.53
							c3.84,7.11,10.13,12.55,16.63,17.36c11.9,8.78,25.35,16.09,40,17.98c14.66,1.89,30.69-2.39,40.33-13.58
							c3.92-4.56,6.65-10.02,8.73-15.65c9.06-24.49,0.82-48.78,2.59-73.62c0.14-2,0.34-4.03,0.63-6.03
							c0.98-6.97-31.11-6.18-35.85-6.66c-16.63-1.71-33.13-4.77-49.27-9.19c-3.66-0.98-10.3-4.35-13.35-0.7
							c-0.32,0.37-0.59,0.79-0.82,1.22c-0.83,1.62-1.09,3.55-1.33,5.39c-0.5,4.12-1.03,8.19-1.61,12.24
							c-1.54,10.89-3.39,21.57-5.82,32.4C516.81,674.06,511.88,686.44,518.94,699.53z"/>
						
							<linearGradient id="SVGID_00000048462771958717447060000006258658929012812731_" gradientUnits="userSpaceOnUse" x1="1056.27" y1="790.4856" x2="1158.1973" y2="790.4856" gradientTransform="matrix(-0.9984 -0.0568 0.0568 -0.9984 1637.2542 1480.2629)">
							<stop  offset="0" style="stop-color:#AB6D1B"/>
							<stop  offset="0.3943" style="stop-color:#975C13"/>
							<stop  offset="1" style="stop-color:#7D4608"/>
						</linearGradient>
						<path style="fill:url(#SVGID_00000048462771958717447060000006258658929012812731_);" d="M525.64,628.31
							c14.94,8.93,31.22,15.71,48.44,17.52c11.59,1.21,23.56-0.07,34.52-4.1c5.96-2.18,13.52-5.04,18.62-9.71
							c0.14-2,0.34-4.03,0.63-6.03c0.98-6.97-31.11-6.18-35.85-6.66c-16.63-1.71-33.13-4.77-49.27-9.19
							c-3.66-0.98-10.3-4.35-13.35-0.7c-0.32,0.37-0.59,0.79-0.82,1.22c-0.83,1.62-1.09,3.55-1.33,5.39
							C526.75,620.19,526.22,624.26,525.64,628.31z"/>
						
							<linearGradient id="SVGID_00000100357190020852170760000016099318117677835653_" gradientUnits="userSpaceOnUse" x1="1189.4009" y1="888.777" x2="1215.824" y2="888.777" gradientTransform="matrix(-1 0 0 -1 1700.9454 1440)">
							<stop  offset="0" style="stop-color:#B27614"/>
							<stop  offset="0.3373" style="stop-color:#AD7114"/>
							<stop  offset="0.7318" style="stop-color:#9F6415"/>
							<stop  offset="1" style="stop-color:#915716"/>
						</linearGradient>
						<path style="fill:url(#SVGID_00000100357190020852170760000016099318117677835653_);" d="M485.23,548.78
							c-1.34-12.56,10.33-31.95,20.32-13.63c3.8,6.98,5.88,14.9,5.99,22.84c0.06,4.3-0.52,8.8-3.01,12.31s-7.32,5.62-11.25,3.88
							c-3.34-1.48-5.09-5.1-6.56-8.43C488.31,560.29,485.86,554.72,485.23,548.78z"/>
						
							<linearGradient id="SVGID_00000139252851424364332560000012119626598696278927_" gradientUnits="userSpaceOnUse" x1="1027.4447" y1="871.6289" x2="1189.743" y2="871.6289" gradientTransform="matrix(-0.9984 -0.0568 0.0568 -0.9984 1637.2542 1480.2629)">
							<stop  offset="0" style="stop-color:#915716"/>
							<stop  offset="0.4709" style="stop-color:#9F6319"/>
							<stop  offset="1" style="stop-color:#AB6D1B"/>
						</linearGradient>
						<path style="fill:url(#SVGID_00000139252851424364332560000012119626598696278927_);" d="M566.12,460.66
							c6.38-0.81,12.95-1.01,20.6-0.31c12.63,1.15,25.59,5.33,37.23,10.34c5.34,2.29,10.23,5.64,14.59,9.46
							c15.76,13.8,18.12,32.05,20.94,51.66c2.39,16.57,1.83,33.87-3.2,49.93c-10.58,33.76-40.16,52.33-74.89,52.39
							c-29.39,0.06-61.86-12.89-75.49-40.5c-10.65-21.58-8.66-49.63-2.85-72.27c2.91-11.31,8.22-21.59,12.16-32.34
							c4.29-11.69,14.84-20.24,26.79-23.27C550.83,463.51,558.33,461.64,566.12,460.66z"/>
						
							<linearGradient id="SVGID_00000096043767027869200520000008727447151217357709_" gradientUnits="userSpaceOnUse" x1="1027.4396" y1="853.1884" x2="1174.3021" y2="853.1884" gradientTransform="matrix(-0.9984 -0.0568 0.0568 -0.9984 1637.2542 1480.2629)">
							<stop  offset="0" style="stop-color:#915716"/>
							<stop  offset="0.4709" style="stop-color:#9F6319"/>
							<stop  offset="1" style="stop-color:#AB6D1B"/>
						</linearGradient>
						<path style="fill:url(#SVGID_00000096043767027869200520000008727447151217357709_);" d="M576.59,572.33
							c6.77-11.82-2.44-28.62,8.16-36.15c17.26-17.33,48.67,2.77,62.1-18.84c3.35-5.16,5.28-10.68,6.01-16.34
							c3.64,9.51,5.07,19.95,6.63,30.81c2.39,16.57,1.83,33.87-3.2,49.93c-10.58,33.76-40.16,52.33-74.89,52.39
							c-26.21,0.05-54.83-10.28-70.39-32.09C537.59,606.97,565.77,594.62,576.59,572.33z"/>
						
							<linearGradient id="SVGID_00000023999378739735589220000013189636479577554064_" gradientUnits="userSpaceOnUse" x1="1032.6708" y1="834.9511" x2="1190.5139" y2="834.9511" gradientTransform="matrix(-0.9984 -0.0568 0.0568 -0.9984 1637.2542 1480.2629)">
							<stop  offset="0" style="stop-color:#5C3117"/>
							<stop  offset="0.417" style="stop-color:#673A1F"/>
							<stop  offset="1" style="stop-color:#734428"/>
						</linearGradient>
						<path style="fill:url(#SVGID_00000023999378739735589220000013189636479577554064_);" d="M503.25,588.45
							c4.22,12.02,9.43,22.43,19.15,31.23c4.9,4.43,10.37,5.5,15.87,8.62c12.46,7.08,28.61,10.22,42.91,9.96
							c20.84-0.37,41.47-5.23,55.01-21.61c6.66-8.06,13.29-17.64,15.85-27.88c2.73-10.93,2.82-22.77,3.35-33.97
							c-1.11-0.01-2.48-0.23-3.57-0.61c-0.63,2.28-0.7,4.71-1.78,6.96c-1.82,3.8-0.9,7.07-2.28,10.89
							c-1.92,5.3-5.44,10.79-8.14,15.79c-2.44,4.52-6.55,11.32-12.75,8.45c-2.85-1.32-4.59-4.09-7.26-5.63
							c-3.86-2.24-8.42-4.07-12.71-5.3c-9.36-2.68-19.31-2.14-29-1.27c-5.5,0.49-11.12,1.11-16.11,3.48
							c-4.78,2.27-8.82,6.07-13.86,7.69c-7.96,2.56-20.66,1.16-25.43-6.53c-10.89-17.56-5.04-41.03-12.96-60.1
							c-0.41-1-0.88-2-1.68-2.73c-2.46-2.23-6.75-0.44-8.19,2.55s-0.9,6.52-0.34,9.79c0.75,4.38,0.08,6.71-1.11,10.64
							c-1.17,3.87-0.62,8.67-0.39,12.67C498.35,570.73,500.2,579.78,503.25,588.45z"/>
						
							<linearGradient id="SVGID_00000089534598167638422570000012889121331236304560_" gradientUnits="userSpaceOnUse" x1="1076.8893" y1="814.8793" x2="1124.002" y2="814.8793" gradientTransform="matrix(-0.9984 -0.0568 0.0568 -0.9984 1637.2542 1480.2629)">
							<stop  offset="0" style="stop-color:#915716"/>
							<stop  offset="0.4709" style="stop-color:#9F6319"/>
							<stop  offset="1" style="stop-color:#AB6D1B"/>
						</linearGradient>
						<path style="fill:url(#SVGID_00000089534598167638422570000012889121331236304560_);" d="M576.17,615.34
							c-1.97-0.14-3.99-0.29-5.82-1.03c-1.37-0.55-2.59-1.42-3.72-2.36c-3.57-2.97-6.56-7.82-4.7-12.07c0.86-1.96,2.64-3.4,4.53-4.4
							c4.61-2.43,10.02-2.68,15.23-2.87c6.53-0.24,13.22-0.47,19.42,1.59c3.35,1.11,6.87,3.4,7.27,6.91
							c0.43,3.74-0.43,9.82-3.59,12.19C597.8,618.53,584.25,615.92,576.17,615.34z"/>
						
							<linearGradient id="SVGID_00000025403121740635930780000013504473977940014471_" gradientUnits="userSpaceOnUse" x1="1033.7126" y1="878.4004" x2="1050.793" y2="878.4004" gradientTransform="matrix(-1 0 0 -1 1700.9454 1440)">
							<stop  offset="0" style="stop-color:#B27614"/>
							<stop  offset="0.3373" style="stop-color:#AD7114"/>
							<stop  offset="0.7318" style="stop-color:#9F6415"/>
							<stop  offset="1" style="stop-color:#915716"/>
						</linearGradient>
						<path style="fill:url(#SVGID_00000025403121740635930780000013504473977940014471_);" d="M650.29,556.18
							c0.98-12.54,11.7-28.76,15.64-8.66c1.5,7.66,1.71,15.84,0.6,23.6c-0.6,4.2-1.67,8.46-3.85,11.3
							c-2.19,2.85-5.74,3.81-8.11,1.22c-2.01-2.2-2.64-6.12-3.13-9.7C650.63,568.08,649.83,562.11,650.29,556.18z"/>
						
							<linearGradient id="SVGID_00000128475186824592897630000016709751653083209398_" gradientUnits="userSpaceOnUse" x1="1022.0224" y1="909.9562" x2="1190.5426" y2="909.9562" gradientTransform="matrix(-0.9984 -0.0568 0.0568 -0.9984 1637.2542 1480.2629)">
							<stop  offset="0" style="stop-color:#5C3117"/>
							<stop  offset="0.417" style="stop-color:#673A1F"/>
							<stop  offset="1" style="stop-color:#734428"/>
						</linearGradient>
						<path style="fill:url(#SVGID_00000128475186824592897630000016709751653083209398_);" d="M507.63,550.15
							c0.09,0.51,0.19,1.01,0.33,1.51c0.88,3.24,3.48,6.41,6.84,6.37c1.02-13.49,2.05-26.98,3.06-40.46
							c0.15-2.01,0.35-4.16,1.57-5.76c0.69-0.92,1.67-1.58,2.54-2.33c7.03-5.95,7.83-16.31,11.77-24.63
							c1.64-3.46,6.04-9.42,10.58-6.9c3.45,1.92,5.29,8.99,8.09,11.96c8.58,9.12,21.02,10.06,32.78,11.14
							c10.6,0.97,21.47,1.4,32.06,0.12c7.25-0.87,11.53-2.2,17.09-6.87c1.67-1.4,7.81-10.25,8.57-10.06
							c4.63,1.19,7.27,17.24,8.35,21.49c1.95,7.67,1.52,16.95,1.68,24.83c0.17,8.18-0.11,16.38-1.31,24.47
							c-1.01,6.83-2.67,13.58-3.09,20.48c-0.06,1-0.08,2.08,0.47,2.92s1.87,1.23,2.56,0.51c0.3-0.31,0.42-0.76,0.51-1.18
							c1.86-8.05,1.48-16.51,3.48-24.53c1.57-6.3,4.07-9.65,8.34-14.06c3.81-3.94,3.64-10.24,4.05-15.48
							c1-12.92-0.65-25.85-6.81-37.39c-15.66-29.35-44.59-42.77-76.96-44c-19.44-0.74-38.53,4.45-54.37,15.75
							c-12.72,9.08-21.73,21.98-26.23,36.91c-1.81,6-2.78,11.94-3.6,18.12c-0.22,1.64-1.51,16.87-0.47,17.08
							c6.18,1.22,6.67,6.48,7.39,11.49C507.31,544.47,507.16,547.36,507.63,550.15z"/>
						
							<linearGradient id="SVGID_00000173131499306149139400000003975353396842704005_" gradientUnits="userSpaceOnUse" x1="1064.7451" y1="960.8025" x2="1168.6195" y2="960.8025" gradientTransform="matrix(-0.9984 -0.0568 0.0568 -0.9984 1637.2542 1480.2629)">
							<stop  offset="0" style="stop-color:#9C5B36"/>
							<stop  offset="0.5695" style="stop-color:#824C2D"/>
							<stop  offset="1" style="stop-color:#734428"/>
						</linearGradient>
						<path style="fill:url(#SVGID_00000173131499306149139400000003975353396842704005_);" d="M584.19,442.31
							c16.28,0.62,31.68,4.33,44.97,11.59c-29.93,23.24-71.38,23.92-104.51,8.22c1.63-1.4,3.34-2.76,5.17-4.06
							C545.67,446.75,564.75,441.57,584.19,442.31z"/>
						
							<linearGradient id="SVGID_00000170966353669339103300000000932071729097482389_" gradientUnits="userSpaceOnUse" x1="913.1472" y1="620.8207" x2="1029.781" y2="620.8207" gradientTransform="matrix(-1 0 0 -1 1700.9454 1440)">
							<stop  offset="0" style="stop-color:#915716"/>
							<stop  offset="0.4709" style="stop-color:#9F6319"/>
							<stop  offset="1" style="stop-color:#AB6D1B"/>
						</linearGradient>
						<path style="fill:url(#SVGID_00000170966353669339103300000000932071729097482389_);" d="M754.58,787.25
							c14.36,24.22,28.33,49.5,32.57,77.34c1.01,6.63,1.3,13.94-2.5,19.47c-3.7,5.38-10.56,7.8-17.08,8.02
							c-15.26,0.51-28.96-8.99-40.4-19.11c-14.9-13.19-28.19-28.21-39.47-44.6c-7.03-10.22-13.4-21.24-15.7-33.43
							s0.03-25.79,8.56-34.79C711.93,727.06,738.44,760.02,754.58,787.25z"/>
						
							<linearGradient id="SVGID_00000152245291644277802710000001603270634728403361_" gradientUnits="userSpaceOnUse" x1="943.7838" y1="605.5082" x2="1252.7566" y2="605.5082" gradientTransform="matrix(-0.9984 -0.0568 0.0568 -0.9984 1637.2542 1480.2629)">
							<stop  offset="0" style="stop-color:#4DAEF7"/>
							<stop  offset="0.1596" style="stop-color:#4AB6E4"/>
							<stop  offset="0.482" style="stop-color:#43CAB4"/>
							<stop  offset="0.9345" style="stop-color:#38EA67"/>
							<stop  offset="1" style="stop-color:#36EF5B"/>
						</linearGradient>
						<path style="fill:url(#SVGID_00000152245291644277802710000001603270634728403361_);" d="M419.35,846.74
							c2.56-45.04,5.63-89.88,7.93-135.16c0.68-13.36,1.47-27.18,7.53-39.12c6.87-13.54,19.92-23.13,33.98-28.86
							c12.42-5.07,40.35-15.76,52.38-7.63c7.74,5.24,14.03,12.23,19.87,19.46c4.09,5.06,9.16,15.68,15.46,18.07
							c4.63,1.76,10.48-1.09,15.44,0.62c6.07,2.09,9.63,7.34,16.81,6.54c3.21-0.36,6.16-1.89,8.92-3.56
							c17.98-10.88,28.07-36.89,50.26-31.78c53.16,12.22,70.14,64.21,84.27,111.15c0.4,1.31,0.79,2.66,0.69,4.03
							c-0.23,3.25-3.04,5.62-5.63,7.59c-9.52,7.26-19.04,14.52-28.56,21.78c-6.94,5.29-14.28,10.1-23.38,9.28
							c10.06,23.49,8.01,57.79,7.28,82.94c-0.93,31.89-4.23,63.72-9.89,95.12c-0.59,3.27-1.27,6.68-3.32,9.3
							c-7.44,9.46-47.55,4.98-60.08,4.97c-28.47-0.02-56.82-4.76-85.21-6.41c-37.63-2.19-75.53-4.55-112.94-9.24
							c0.35,0.04,2.88-43.64,4.15-65.81C416.84,883.19,418.58,852.27,419.35,846.74z"/>
						<g>
							
								<linearGradient id="SVGID_00000088101600657771863400000003084145570469329049_" gradientUnits="userSpaceOnUse" x1="1031.4171" y1="777.4355" x2="1035.2151" y2="777.4355" gradientTransform="matrix(-0.9984 -0.0568 0.0568 -0.9984 1637.2542 1480.2629)">
								<stop  offset="0" style="stop-color:#FFFFFF"/>
								<stop  offset="1" style="stop-color:#FFFFFF;stop-opacity:0"/>
							</linearGradient>
							<path style="fill:url(#SVGID_00000088101600657771863400000003084145570469329049_);" d="M651.63,645.68
								c-0.29,0.07-0.58,0.12-0.87,0.21c-0.94-0.41-1.91-0.75-2.89-1.07C649.11,645.04,650.36,645.31,651.63,645.68z"/>
						</g>
						<path class="st26" d="M647.03,658.48c-2.34,8.42-9.34,23.42-14.53,30.39c-1.62,2.18-4.03,3.6-6.43,4.85
							c-3.38,1.77-6.87,3.33-10.45,4.65c-0.81,0.3-1.79,0.57-2.49,0.08c-0.49-0.34-0.69-0.95-0.86-1.52
							c-2.68-8.88-0.15-22.21-13.65-19.41c-4.11,0.85-7.78,3.06-11.36,5.25c1.47-0.9,3.58-9.07,4.98-11.07
							c2.65-3.76,5.79-6.08,9.53-8.53c8.34-5.45,16.72-10.69,22.48-19.14c2.86-4.19,4-9.02,3.32-14.01
							C642.67,627.85,650.24,646.89,647.03,658.48z"/>
						<path class="st26" d="M508.4,650.6c3.07,17.46,16.83,32.84,29.72,44.17c1.48,1.3,6.2,2.6,8.23,2.43
							c0.98-0.08,1.79-0.76,2.54-1.4c5.38-4.58,11.07-8.81,17.01-12.63c4.69-3.02,10.2-5.9,15.59-4.49
							c-1.88-5.43-6.87-9.13-11.81-12.08c-12.01-7.17-51.17-22.48-43.44-42.93c-0.43,1.14-11.61,5.89-13.72,8.84
							C508.34,638.37,507.13,643.35,508.4,650.6z"/>
					</g>
				</g>
			</g>
			<g>
				
					<linearGradient id="SVGID_00000015319966309709287370000008944654178704821412_" gradientUnits="userSpaceOnUse" x1="395.9211" y1="449.0388" x2="445.6395" y2="449.0388" gradientTransform="matrix(-0.993 -0.1182 0.1182 -0.993 1302.9951 1707.1254)">
					<stop  offset="0" style="stop-color:#915716"/>
					<stop  offset="0.4709" style="stop-color:#9F6319"/>
					<stop  offset="1" style="stop-color:#AB6D1B"/>
				</linearGradient>
				<path style="fill:url(#SVGID_00000015319966309709287370000008944654178704821412_);" d="M959.53,1126.81
					c-1.17-4.26-2.88-8.12-5.46-11.04c-5.85-6.61-19.21-7.31-26.17-1.47c-3.79,3.18-4.33,8.71-4.59,13.65
					c-1.29,24.18-2.06,47.64,0.29,71.79c3.06,31.55,6.13,63.1,9.19,94.64c0.32,3.27,0.64,6.55,0.95,9.83c0.63,6.5,3.63,9.9,10.2,9.1
					c13.1-1.61,11.6-60.29,13.46-69.73c5.83-29.48,8.02-59.65,5.34-89.63C962.05,1146.44,961.98,1135.74,959.53,1126.81z"/>
				
					<linearGradient id="SVGID_00000094577486467923999660000018130305532616538257_" gradientUnits="userSpaceOnUse" x1="354.2859" y1="335.2804" x2="419.1056" y2="335.2804" gradientTransform="matrix(-0.9684 0.2496 -0.2496 -0.9684 1381.7454 1546.458)">
					<stop  offset="0" style="stop-color:#915716"/>
					<stop  offset="0.4709" style="stop-color:#9F6319"/>
					<stop  offset="1" style="stop-color:#AB6D1B"/>
				</linearGradient>
				<path style="fill:url(#SVGID_00000094577486467923999660000018130305532616538257_);" d="M956.09,1314.58
					c-2.31-7.99-6.41-17.63-11.57-23.45c1.27,1.43-43.79,44-47.26,47.36c-0.47,0.45-0.96,0.94-1.17,1.56
					c-0.43,1.24,0.41,2.64,1.56,3.26c1.15,0.62,2.53,0.66,3.84,0.64c7.53-0.11,14.75-1.64,21.81-4.19c4.4-1.59,9.77-5.64,15.29-7.25
					c4.72-1.34,10.11-1.22,13.94-4.29C956.42,1325.12,957.48,1319.37,956.09,1314.58z"/>
			</g>
			
				<linearGradient id="SVGID_00000002375984319041180890000004396155483221386115_" gradientUnits="userSpaceOnUse" x1="740.7176" y1="354.7057" x2="799.489" y2="354.7057" gradientTransform="matrix(-0.9993 0.0363 -0.0363 -0.9993 1725.1754 1415.287)">
				<stop  offset="0" style="stop-color:#915716"/>
				<stop  offset="0.4709" style="stop-color:#9F6319"/>
				<stop  offset="1" style="stop-color:#AB6D1B"/>
			</linearGradient>
			<path style="fill:url(#SVGID_00000002375984319041180890000004396155483221386115_);" d="M912.84,1073.22
				c-0.79-9.31,0.23-23.72,4.88-32.3c5.48-10.11,18.54-9.89,28.45-12.87c10.02-3.01,21.19-4.83,23.43,8.66
				c1.64,9.9,1.15,20.03,0.49,30.05c-1.47,22.44-4.76,43.54-8.81,65.47c-0.61,3.27-1.26,6.67-3.24,9.35
				c-1.8,2.43-4.5,4.01-7.13,5.52c-4.65,2.67-10.12,5.42-15.13,3.51c-4.55-1.73-6.9-6.66-8.59-11.22
				c-4.53-12.27-7.34-24.23-10.02-36.91C915.12,1092.83,913.68,1083.05,912.84,1073.22z"/>
			<g>
				<path class="st30" d="M848.86,801.65c5.78,11.92,14.12,21.63,27.27,25.73c2.4-6.64,0.33-11.73-2.79-18.09
					c-2.43-4.97-5.8-9.54-9.92-13.37c-2.32-2.15-5.03-4.14-8.17-4.66c-3.13-0.51-6.73,0.92-7.63,3.82
					C846.96,797.23,847.85,799.57,848.86,801.65z"/>
				
					<linearGradient id="SVGID_00000013159995401680705840000004398880010973669001_" gradientUnits="userSpaceOnUse" x1="757.0084" y1="565.0878" x2="894.6016" y2="565.0878" gradientTransform="matrix(-0.9188 -0.3947 0.3947 -0.9188 1349.561 1656.9082)">
					<stop  offset="0" style="stop-color:#915716"/>
					<stop  offset="0.4709" style="stop-color:#9F6319"/>
					<stop  offset="1" style="stop-color:#AB6D1B"/>
				</linearGradient>
				<path style="fill:url(#SVGID_00000013159995401680705840000004398880010973669001_);" d="M892.83,760.33
					c3.94,1.27,5.68,5.82,6.51,9.88c7.62,37.26-47.48,73.11-76.78,84.57c-30.89,12.09-65.83,13.53-97.62,4.04
					c-1.55-0.47-3.26-1.09-3.96-2.55c-1.44-3,2.46-5.71,5.66-6.61c28.46-7.95,61.8,1.29,86.4-15.08
					c14.59-9.7,23.15-25.91,36.07-37.45c11.04-9.86,20.91-20.5,31.36-31.09C883.84,762.64,888.26,758.87,892.83,760.33z"/>
				
					<linearGradient id="SVGID_00000102511035300773226050000015870158951219620015_" gradientUnits="userSpaceOnUse" x1="964.9204" y1="572.468" x2="1015.4787" y2="572.468" gradientTransform="matrix(-0.9999 0.014 -0.014 -0.9999 1719.36 1418.9227)">
					<stop  offset="0" style="stop-color:#915716"/>
					<stop  offset="0.4709" style="stop-color:#9F6319"/>
					<stop  offset="1" style="stop-color:#AB6D1B"/>
				</linearGradient>
				<path style="fill:url(#SVGID_00000102511035300773226050000015870158951219620015_);" d="M735.85,858.5
					c-0.39,0.81-0.81,1.66-1.29,2.56c-3.97,7.59-10.54,11.35-18.82,13.61c-4.89,1.34-11.37,6.97-15.97,3.97
					c-8.79-5.74,0.34-23.81,5.73-28.83c4-3.72,9.31-5.63,14.46-7.44c8.13-2.86,18.87,1.4,26.37,4.42
					C739.69,850.07,738.35,853.36,735.85,858.5z"/>
				
					<linearGradient id="SVGID_00000093870053823818256720000004523190468543213720_" gradientUnits="userSpaceOnUse" x1="748.9387" y1="623.2375" x2="803.2459" y2="623.2375" gradientTransform="matrix(-0.9188 -0.3947 0.3947 -0.9188 1349.561 1656.9082)">
					<stop  offset="0" style="stop-color:#F7A94D"/>
					<stop  offset="0.2263" style="stop-color:#F69649"/>
					<stop  offset="0.6806" style="stop-color:#F2663E"/>
					<stop  offset="1" style="stop-color:#EF4136"/>
				</linearGradient>
				<path style="fill:url(#SVGID_00000093870053823818256720000004523190468543213720_);" d="M876.87,818.36
					c-2.02-8.26-10.45-20.07-17.84-24.4c-2.53-1.48-5.54-2.33-8.4-1.74c2.43-0.5,3.2-14.35,3.96-16.8
					c2.56-8.31,6.56-16.96,11.48-24.12c4.63-6.72,11.42-10.74,18.64-14.13c4.38-2.06,12.7-6.97,16.73-1.95
					c2.66,3.31,5.35,6.66,7.14,10.5c3.6,7.71,1.98,17.28,1.26,25.4c-0.94,10.5-3.98,21.93-8.42,31.46
					c-5.06,10.88-13.7,20.66-25.11,24.34C877.53,824.23,877.6,821.32,876.87,818.36z"/>
				
					<linearGradient id="SVGID_00000114053493053989687870000014754906327228431014_" gradientUnits="userSpaceOnUse" x1="748.9407" y1="611.7033" x2="798.7136" y2="611.7033" gradientTransform="matrix(-0.9188 -0.3947 0.3947 -0.9188 1349.561 1656.9082)">
					<stop  offset="0" style="stop-color:#F7A94D"/>
					<stop  offset="0.2263" style="stop-color:#F69649"/>
					<stop  offset="0.6806" style="stop-color:#F2663E"/>
					<stop  offset="1" style="stop-color:#EF4136"/>
				</linearGradient>
				<path style="fill:url(#SVGID_00000114053493053989687870000014754906327228431014_);" d="M863.52,778.62
					c13.67-3.77,25.01,3.51,38.4-5.21c3.86-2.92,6.66-6.29,8.64-9.91c-0.22,2.6-0.5,5.17-0.72,7.61
					c-0.94,10.5-3.98,21.93-8.42,31.46c-5.06,10.88-13.7,20.66-25.11,24.34c1.23-2.68,1.29-5.59,0.57-8.55
					c-2.02-8.26-10.45-20.07-17.84-24.4c-1.64-0.96-3.49-1.61-5.37-1.82C853.61,785.57,855.55,780.36,863.52,778.62z"/>
				
					<linearGradient id="SVGID_00000103954742287185340250000006355715730576305557_" gradientUnits="userSpaceOnUse" x1="755.9968" y1="634.1193" x2="803.2459" y2="634.1193" gradientTransform="matrix(-0.9188 -0.3947 0.3947 -0.9188 1349.561 1656.9082)">
					<stop  offset="0" style="stop-color:#F7A94D"/>
					<stop  offset="0.2263" style="stop-color:#F69649"/>
					<stop  offset="0.6806" style="stop-color:#F2663E"/>
					<stop  offset="1" style="stop-color:#EF4136"/>
				</linearGradient>
				<path style="fill:url(#SVGID_00000103954742287185340250000006355715730576305557_);" d="M866.07,751.3
					c4.63-6.72,11.42-10.74,18.64-14.13c4.38-2.06,12.7-6.97,16.73-1.95c2.66,3.31,5.35,6.66,7.14,10.5
					c2.52,5.4,2.47,11.71,1.98,17.8c-1.98,3.63-4.77,7-8.64,9.91c-13.39,8.71-24.72,1.43-38.4,5.21c-7.97,1.74-9.91,6.95-9.86,13.52
					c-1.01-0.11-2.03-0.14-3.04,0.07c2.43-0.5,3.2-14.35,3.96-16.8C857.15,767.11,861.15,758.46,866.07,751.3z"/>
			</g>
			
				<linearGradient id="SVGID_00000096775792638180834640000016209781676254928287_" gradientUnits="userSpaceOnUse" x1="695.1966" y1="838.1034" x2="885.7793" y2="838.1034" gradientTransform="matrix(-0.9773 0.2116 -0.2116 -0.9773 1866.1606 1271.8662)">
				<stop  offset="0" style="stop-color:#5C3117"/>
				<stop  offset="0.417" style="stop-color:#673A1F"/>
				<stop  offset="1" style="stop-color:#734428"/>
			</linearGradient>
			<path style="fill:url(#SVGID_00000096775792638180834640000016209781676254928287_);" d="M828.37,587.9
				c-2.05,31.42,6.02,62.08,4.78,93.63c-0.45,11.42,7.06,35.19,21.65,19.55c-1.89,12.51,10.33,24.9,21.94,23.92
				c12.28-1.03,16.83-12.05,22.57-21.12c-13.26,20.96,68.92,18.91,74.93,17.3c4.64-1.24,32.74-22.11,22.44-22.99
				c19.72,1.68,32.41-18.2,26-35.77c-5.17-14.16-12.94-24.6-13.68-39.52c-0.77-15.66-1.91-30.75-6.16-45.95
				c-9.26-33.18-38.65-59.85-72.58-65.88c-11.9-2.11-24.17-1.87-36.09,0.19c-8.92,1.53-17.72,4.11-25.71,8.37
				C844.14,532.6,830.16,560.39,828.37,587.9z"/>
			
				<linearGradient id="SVGID_00000115486593219459339970000001846602683119074211_" gradientUnits="userSpaceOnUse" x1="741.6552" y1="689.0428" x2="849.5071" y2="689.0428" gradientTransform="matrix(-0.9773 0.2116 -0.2116 -0.9773 1866.1606 1271.8662)">
				<stop  offset="0" style="stop-color:#915716"/>
				<stop  offset="0.4709" style="stop-color:#9F6319"/>
				<stop  offset="1" style="stop-color:#AB6D1B"/>
			</linearGradient>
			<path style="fill:url(#SVGID_00000115486593219459339970000001846602683119074211_);" d="M944.14,661.02
				c-11.9,2.76-23.81,5.51-35.72,8.27c6.2-1.43,1.48,34.34,1.56,37.59c0.48,20.22-5.06,26.16-27.64,28.67
				c0.48,20.72,10.08,40.31,16.89,59.55c7.68,21.69,15.36,43.37,23.04,65.07c0.46,1.29,0.97,2.66,2.05,3.5
				c1.3,1.01,3.1,1.02,4.75,0.98c17.66-0.42,35.33-0.83,52.99-1.24c1.9-0.04,3.93-0.13,5.47-1.26c2.21-1.62,2.58-4.73,2.69-7.48
				c1.43-31.99,0.28-64.81,0.04-96.83c-0.06-8.14,1.5-24.45-1.2-31.61c-4.98-13.21-21.11-5.76-33.82-6.83
				c-2.3-0.19-4.87-0.63-6.19-2.52c-0.98-1.4-0.99-3.24-0.96-4.94C948.34,694.47,942.97,678.86,944.14,661.02z"/>
			
				<linearGradient id="SVGID_00000176044590168707009170000001614634118127336881_" gradientUnits="userSpaceOnUse" x1="775.114" y1="753.2953" x2="818.0963" y2="753.2953" gradientTransform="matrix(-0.9773 0.2116 -0.2116 -0.9773 1866.1606 1271.8662)">
				<stop  offset="0" style="stop-color:#AB6D1B"/>
				<stop  offset="0.3943" style="stop-color:#975C13"/>
				<stop  offset="1" style="stop-color:#7D4608"/>
			</linearGradient>
			<path style="fill:url(#SVGID_00000176044590168707009170000001614634118127336881_);" d="M947.33,691.85
				c-1.97,8.16-7.22,15.48-14.32,19.97s-15.96,6.08-24.18,4.35c0.13-3.12,0.49-6.22,1.07-9.29c0.2-1.05,0.45-2.15,1.2-2.92
				c0.65-0.67,1.58-0.98,2.47-1.28c11.31-3.68,22.62-7.36,33.93-11.04c-0.64-0.6-1.28-1.18-1.92-1.78"/>
			
				<linearGradient id="SVGID_00000067947403717449985820000002950519404070192531_" gradientUnits="userSpaceOnUse" x1="723.5974" y1="838.3611" x2="868.9157" y2="838.3611" gradientTransform="matrix(-0.9773 0.2116 -0.2116 -0.9773 1866.1606 1271.8662)">
				<stop  offset="0" style="stop-color:#915716"/>
				<stop  offset="0.4709" style="stop-color:#9F6319"/>
				<stop  offset="1" style="stop-color:#AB6D1B"/>
			</linearGradient>
			<path style="fill:url(#SVGID_00000067947403717449985820000002950519404070192531_);" d="M879.93,537.73
				c33.94-10.62,76.86-2.46,90.87,29.01c23.55,52.89,3.97,124.74-54.27,143.11c-42.85,13.52-69.25-42.95-77.47-76.38
				c-4.59-18.66-7.86-38.47-2.47-56.91C842.17,557.42,859.41,544.14,879.93,537.73z"/>
			
				<linearGradient id="SVGID_00000037691508824367296840000007412309646280439199_" gradientUnits="userSpaceOnUse" x1="728.8488" y1="642.845" x2="870.421" y2="642.845" gradientTransform="matrix(-0.9773 0.2116 -0.2116 -0.9773 1866.1606 1271.8662)">
				<stop  offset="0" style="stop-color:#F7A94D"/>
				<stop  offset="0.2263" style="stop-color:#F69649"/>
				<stop  offset="0.6806" style="stop-color:#F2663E"/>
				<stop  offset="1" style="stop-color:#EF4136"/>
			</linearGradient>
			<path style="fill:url(#SVGID_00000037691508824367296840000007412309646280439199_);" d="M880.59,827.56
				c2.14,4.41,5.08,8.39,8,12.34c11.88,16.04,10.83,44.47,29.69,55.78c2.91,1.74,6.29,2.52,9.63,3.14
				c20.55,3.86,72.03,7.88,82.49-16.16c5.93-13.62,3.25-35.83,3.08-50.39c-0.19-16.78-1.17-33.55-1.59-50.33
				c-0.49-19.39-4.81-45.45-21.35-58.07c-4.89-3.72-9.87-5.54-15.83-6.07c-6.73-0.6-14.83-3.01-19.79,2.4
				c-9.06,9.85-8.89,22.47-15.68,33.24c-2.06,3.3-6.89,9.06-11.26,6.49c-3.12-1.85-6.51-8.58-8.98-11.43
				c-5.21-6.07-10.76-11.81-16.09-17.75c-0.6-0.67-1.26-1.34-2.1-1.6c-0.96-0.3-1.99-0.01-2.95,0.3c-1.55,0.5-3.07,1.08-4.56,1.72
				c-1.99,0.83-3.91,1.77-5.8,2.81c-1.59,0.9-3.17,1.87-4.35,3.25c-1.54,1.79-2.32,4.1-2.96,6.36c-3.77,13.29-8.07,28.09-6.05,42.03
				C876.1,799.18,874.45,814.95,880.59,827.56z"/>
			
				<linearGradient id="SVGID_00000157279456665840420780000013324082889564288676_" gradientUnits="userSpaceOnUse" x1="717.1149" y1="881.8456" x2="873.7389" y2="881.8456" gradientTransform="matrix(-0.9773 0.2116 -0.2116 -0.9773 1866.1606 1271.8662)">
				<stop  offset="0" style="stop-color:#5C3117"/>
				<stop  offset="0.417" style="stop-color:#673A1F"/>
				<stop  offset="1" style="stop-color:#734428"/>
			</linearGradient>
			<path style="fill:url(#SVGID_00000157279456665840420780000013324082889564288676_);" d="M831.67,561.99
				c2.28-5.79,5.15-11.44,9.27-16.09c6.31-7.12,15.17-11.47,24.16-14.58c23.73-8.21,50.03-8.77,74.09-1.57
				c2.04,0.61,3.83,1.31,5.42,2.07c8.96,0.27,20.17,12.52,24.5,18.23c8.53,11.28,13.49,25.13,15.12,39.12
				c0.76,6.57,4.26,25.41-5.22,28.44c-10.31,3.3-25.35-21.26-29.33-27.72c-2.35-3.8-5.59-9.36-8.56-15.61
				c-14.61,16.41-43.03,21.97-63.76,25.79c-8.04,1.48-16.22,2.52-23.95,5.17c-9.2,3.14-13.82,9.46-20.92,14.67
				C824.63,602.9,824.9,579.21,831.67,561.99z"/>
			
				<linearGradient id="SVGID_00000042734362714727250720000009361013775091614107_" gradientUnits="userSpaceOnUse" x1="719.4815" y1="811.4891" x2="735.3405" y2="811.4891" gradientTransform="matrix(-0.9773 0.2116 -0.2116 -0.9773 1866.1606 1271.8662)">
				<stop  offset="0" style="stop-color:#915716"/>
				<stop  offset="0.4709" style="stop-color:#9F6319"/>
				<stop  offset="1" style="stop-color:#AB6D1B"/>
			</linearGradient>
			<path style="fill:url(#SVGID_00000042734362714727250720000009361013775091614107_);" d="M980.86,617.64
				c1.33-1.07,3.39-0.69,4.71,0.39c1.31,1.08,2.06,2.69,2.73,4.26c2.19,5.08,4.14,10.55,3.35,16.02
				c-0.79,5.47-5.22,10.79-10.75,10.71C975.35,648.95,976.87,620.83,980.86,617.64z"/>
			<path class="st43" d="M963.44,723.59c-2.22-6.38-8.62-13.69-14.49-7.63c-4.47,4.63-6.16,11.64-8.85,17.32
				c-4.43,9.35-8.12,19.05-11.02,28.98c6.84,1.66,14.28,0.01,20.18-3.85c5.89-3.86,10.28-9.78,12.9-16.31
				C964.54,736.24,965.52,729.56,963.44,723.59z"/>
			<path class="st43" d="M897.43,729.3c0.81-2.43,8.18-12.82,11.54-9.79c0.54,0.49,0.68,1.27,0.79,1.99
				c1.19,8.01,4.05,12.65,8.31,19.55c4.23,6.87,8.47,13.74,12.7,20.61c-6.88,1.41-14.27,0.17-20.32-3.4
				c-6.05-3.58-10.7-9.45-12.78-16.16C896.37,737.96,896.05,733.41,897.43,729.3z"/>
			
				<linearGradient id="SVGID_00000019678890248118485550000011762117642808740000_" gradientUnits="userSpaceOnUse" x1="730.2626" y1="914.9235" x2="868.1126" y2="914.9235" gradientTransform="matrix(-0.9773 0.2116 -0.2116 -0.9773 1866.1606 1271.8662)">
				<stop  offset="0" style="stop-color:#9C5B36"/>
				<stop  offset="0.5695" style="stop-color:#824C2D"/>
				<stop  offset="1" style="stop-color:#734428"/>
			</linearGradient>
			<path style="fill:url(#SVGID_00000019678890248118485550000011762117642808740000_);" d="M846.94,587.62
				c-6.37-0.55-12.37-2.2-18.11-4.65c3.05-25.85,16.77-51.14,39.63-63.34c7.99-4.26,16.79-6.83,25.71-8.37
				c11.92-2.06,24.19-2.31,36.09-0.19c9.1,1.62,17.85,4.76,26,9.07C950.59,566.83,888.88,588.95,846.94,587.62z"/>
			<g>
				<g>
					
						<linearGradient id="SVGID_00000074418964361395968290000015015203320742758291_" gradientUnits="userSpaceOnUse" x1="1105.4264" y1="817.6838" x2="1176.2904" y2="817.6838" gradientTransform="matrix(-0.6743 0.7385 0.7385 0.6743 978.4796 -489.9884)">
						<stop  offset="0" style="stop-color:#915716"/>
						<stop  offset="0.4709" style="stop-color:#9F6319"/>
						<stop  offset="1" style="stop-color:#AB6D1B"/>
					</linearGradient>
					<path style="fill:url(#SVGID_00000074418964361395968290000015015203320742758291_);" d="M832.65,931.97
						c1.38,5.28,1.54,10.39,2.62,15.68c0.93,4.52,1.67,9.48-0.53,13.53c-10.35,19.05-34.72-41.25-37.54-48.62
						c-2.2-5.72-4.39-11.44-6.59-17.17c-4.62-12.03-12.96-64.77,14.86-46.11C823.98,861.7,827.57,912.53,832.65,931.97z"/>
				</g>
				<g>
					
						<linearGradient id="SVGID_00000150808280756130828830000004055336707400741555_" gradientUnits="userSpaceOnUse" x1="512.0989" y1="691.0941" x2="691.3384" y2="691.0941" gradientTransform="matrix(-1 0 0 -1 1365.1696 1440)">
						<stop  offset="0" style="stop-color:#5C3117"/>
						<stop  offset="0.417" style="stop-color:#673A1F"/>
						<stop  offset="1" style="stop-color:#734428"/>
					</linearGradient>
					<path style="fill:url(#SVGID_00000150808280756130828830000004055336707400741555_);" d="M729.82,668.25
						c8.2-4.79,18.91-4.76,24.66,4.61c8.53-8.09,9.59-13.77,24.27-11.01c10.78,2.03,17.01,8.8,19.29,19.3
						c17.43-19.97,50.72,5.8,30.78,24.59c23.15-4.03,27.74,39.1,10.76,47.52c26.1,5.06,9.21,43.36-7.69,32.56
						c-5.98,26.77-33.8,45.31-59.47,49.86c-13.4,2.38-25.53,0.24-38.2-4.26c-4.57-1.63-12.14-2.99-15.96-5.96
						c-2.11-1.64-8.15-9.54-3.12-12.02c-16.66,8.18-25.8-4.88-19.95-19.98c-8.66,0.88-18.46-5.37-20.33-14.03
						c-1.98-9.18,6.98-17.07,13.5-22.18c-8.19-5.39-16.67-12.72-14.05-24.06c1.55-6.69,10.91-17.78,18.61-15
						C682,700.94,700.18,678,719.33,690.2C716.86,681.13,722.28,672.65,729.82,668.25z"/>
					
						<linearGradient id="SVGID_00000106845496929456028840000002038580240152135556_" gradientUnits="userSpaceOnUse" x1="629.2808" y1="723.8055" x2="630.4356" y2="723.8055" gradientTransform="matrix(-1 0 0 -1 1365.1696 1440)">
						<stop  offset="0" style="stop-color:#5C3117"/>
						<stop  offset="0.417" style="stop-color:#673A1F"/>
						<stop  offset="1" style="stop-color:#734428"/>
					</linearGradient>
					<path style="fill:url(#SVGID_00000106845496929456028840000002038580240152135556_);" d="M735.09,712.74
						c0.85,2.54,0.98,4.85,0.59,6.91C734.74,717.69,734.42,715.42,735.09,712.74z"/>
					
						<linearGradient id="SVGID_00000060711296204475452650000017615484815544163752_" gradientUnits="userSpaceOnUse" x1="889.3624" y1="244.1843" x2="932.5821" y2="244.1843" gradientTransform="matrix(-1 0 0 -1 1700.9454 1440)">
						<stop  offset="0" style="stop-color:#915716"/>
						<stop  offset="0.4709" style="stop-color:#9F6319"/>
						<stop  offset="1" style="stop-color:#AB6D1B"/>
					</linearGradient>
					<path style="fill:url(#SVGID_00000060711296204475452650000017615484815544163752_);" d="M783.69,1308.42
						c0.03,2.78-1.11,5.44-1.67,8.17c-1.1,5.41-3.92,8-9.38,6.74c-6.98-1.61-3.48-67.81-2.82-75.69
						c2.32-27.93,5.43-55.78,7.14-83.75c1.41-23.09-3.32-46.19-0.02-69.65c1.17-8.3,3.74-17,10.19-22.35
						c6.44-5.36,17.67-5.49,22.16,1.58c2.53,3.98,2.4,9.04,2.18,13.75c-1.78,37.81-2.13,76-9.39,113.13
						C795.65,1233.26,783.13,1261.64,783.69,1308.42z"/>
					<g>
						
							<linearGradient id="SVGID_00000108282783017748921100000014208836669570733468_" gradientUnits="userSpaceOnUse" x1="1085.4347" y1="252.1139" x2="1128.9869" y2="252.1139" gradientTransform="matrix(-0.8879 0.46 -0.46 -0.8879 1889.54 1041.3556)">
							<stop  offset="0" style="stop-color:#A34DF7"/>
							<stop  offset="0.2172" style="stop-color:#904FF6"/>
							<stop  offset="0.6534" style="stop-color:#6054F2"/>
							<stop  offset="1" style="stop-color:#3658EF"/>
						</linearGradient>
						<path style="fill:url(#SVGID_00000108282783017748921100000014208836669570733468_);" d="M819.44,1336.79
							c-0.08,0.15-0.18,0.29-0.31,0.43c-6.02,6.21-23.21,1.69-30.39,0.31c-6.94-1.33-20.09-0.32-21.62-9.33
							c-0.29-1.73,0.02-3.5,0.23-5.24c0.41-3.35-0.7-8.66,2.28-11.03c0.82,5.2,4.98,4.69,6.68,0.34c0.23-0.58,0.43-1.22,0.95-1.56
							c0.42-0.27,0.95-0.28,1.45-0.28c1.87,0,3.74,0.01,5.61,0.01c0.52,0,1.08,0.01,1.52,0.29c0.37,0.23,0.61,0.61,0.84,0.98
							c3.01,4.76,6.33,8.17,10.97,11.23C800.24,1324.63,821.65,1332.52,819.44,1336.79z"/>
					</g>
					
						<linearGradient id="SVGID_00000013175004783547608490000000410167651043767468_" gradientUnits="userSpaceOnUse" x1="929.7996" y1="263.7695" x2="1020.9366" y2="263.7695" gradientTransform="matrix(-1 0 0 -1 1700.9454 1440)">
						<stop  offset="0" style="stop-color:#915716"/>
						<stop  offset="0.4709" style="stop-color:#9F6319"/>
						<stop  offset="1" style="stop-color:#AB6D1B"/>
					</linearGradient>
					<path style="fill:url(#SVGID_00000013175004783547608490000000410167651043767468_);" d="M694.38,1270.71
						c-2.2,2.14-4.3,4.38-6.47,6.7c-0.84,0.9-1.74,1.83-2.92,2.15c-2.75,0.73-5.21-2.48-4.96-5.31c0.24-2.83,2.16-5.19,3.85-7.47
						c12.87-17.3,21.56-36.98,35.98-53.38c3.62-4.11,7.47-8.12,10.08-12.93c7.1-13.11,7.2-32.37,6.84-46.87
						c-0.46-18.64-5.51-38.08-1.23-56.47c1.9-8.17,5.23-16.6,12.13-21.36c6.89-4.77,18.08-3.91,21.94,3.53
						c2.17,4.19,1.59,9.21,0.95,13.9c-3.07,22.5-3.21,45.24-3.93,67.89c-0.68,21.45-3.69,35.45-18.38,51.87
						c-11.54,12.89-23.07,25.79-34.6,38.69c-4.62,5.17-7.48,9.29-13.17,13.7C698.3,1267.04,696.3,1268.84,694.38,1270.71z"/>
					<g>
						
							<linearGradient id="SVGID_00000049217423824347760240000007567093067679078072_" gradientUnits="userSpaceOnUse" x1="960.5764" y1="145.0467" x2="997.5119" y2="145.0467" gradientTransform="matrix(-0.9987 -0.0513 0.0513 -0.9987 1656.3932 1478.9353)">
							<stop  offset="0" style="stop-color:#A34DF7"/>
							<stop  offset="0.2172" style="stop-color:#904FF6"/>
							<stop  offset="0.6534" style="stop-color:#6054F2"/>
							<stop  offset="1" style="stop-color:#3658EF"/>
						</linearGradient>
						<path style="fill:url(#SVGID_00000049217423824347760240000007567093067679078072_);" d="M702.39,1307.48
							c-3.98,2.03-8.85-4.4-10.95-6.56c-7.27-7.49-14.53-14.99-21.8-22.48c-0.56-0.58-1.14-1.18-1.43-1.94
							c-0.6-1.57,0.21-3.3,1-4.79c1.64-3.12,3.35-6.31,6.02-8.62c2.02-1.75,4.21-2.48,6.8-2.69c0.72-0.06,5.67,0.65,5.75,0.54
							c-1.66,2.27-1.53,5.68,0.3,7.81c0.73,0.85,2,1.51,2.93,0.88c0.4-0.27,0.63-0.73,0.94-1.09c0.67-0.78,1.79-1.15,2.79-0.93
							c0.48,0.11,0.98,0.4,1.1,0.88c0.11,0.46-0.15,0.92-0.38,1.33c-6.49,11.34,5.83,23.2,7.89,34.29
							C703.57,1305.33,703.51,1306.91,702.39,1307.48z"/>
					</g>
					
						<linearGradient id="SVGID_00000010303836851774036970000010089758285691239083_" gradientUnits="userSpaceOnUse" x1="559.5978" y1="552.0657" x2="649.4896" y2="552.0657" gradientTransform="matrix(-1 0 0 -1 1365.1696 1440)">
						<stop  offset="0" style="stop-color:#915716"/>
						<stop  offset="0.4709" style="stop-color:#9F6319"/>
						<stop  offset="1" style="stop-color:#AB6D1B"/>
					</linearGradient>
					<path style="fill:url(#SVGID_00000010303836851774036970000010089758285691239083_);" d="M744.52,802.68
						c10.09,0.76,20.17,1.52,30.26,2.27c-5.25-0.4,3.1,28.26,3.45,30.95c0.9,6.88,2.45,14.29,9.04,17.85
						c6.88,3.72,16.16,2.07,17.88,11.82c2.18,12.32-4.72,29.02-7.02,41.15c-3.55,18.71-7.11,37.41-10.66,56.12
						c-0.21,1.11-0.45,2.29-1.23,3.12c-0.94,0.99-2.4,1.22-3.76,1.4c-14.5,1.88-29,3.77-43.5,5.65c-1.56,0.2-3.23,0.38-4.63-0.34
						c-2.02-1.04-2.7-3.55-3.15-5.77c-5.2-25.99-8.39-52.98-12.22-79.2c-0.97-6.67-4.3-19.81-2.99-26
						c2.41-11.43,16.54-7.37,26.81-9.84c1.86-0.45,3.91-1.13,4.75-2.84c0.62-1.27,0.4-2.77,0.17-4.17
						C745.3,830.57,747.73,817.12,744.52,802.68z"/>
					
						<linearGradient id="SVGID_00000065045130377960024490000011762242851288396186_" gradientUnits="userSpaceOnUse" x1="586.5193" y1="604.7234" x2="621.2303" y2="604.7234" gradientTransform="matrix(-1 0 0 -1 1365.1696 1440)">
						<stop  offset="0" style="stop-color:#AB6D1B"/>
						<stop  offset="0.3943" style="stop-color:#975C13"/>
						<stop  offset="1" style="stop-color:#7D4608"/>
					</linearGradient>
					<path style="fill:url(#SVGID_00000065045130377960024490000011762242851288396186_);" d="M744.11,827.82
						c2.64,6.43,7.85,11.75,14.22,14.53c6.37,2.78,13.82,2.97,20.32,0.52c-0.5-2.53-1.18-5.03-2.05-7.46
						c-0.3-0.83-0.64-1.7-1.35-2.24c-0.62-0.47-1.42-0.61-2.18-0.73c-9.71-1.59-19.43-3.18-29.14-4.76
						c0.45-0.56,0.89-1.13,1.34-1.69"/>
					
						<linearGradient id="SVGID_00000128466495956118663300000009721670250329107602_" gradientUnits="userSpaceOnUse" x1="539.0506" y1="674.2516" x2="659.2303" y2="674.2516" gradientTransform="matrix(-1 0 0 -1 1365.1696 1440)">
						<stop  offset="0" style="stop-color:#915716"/>
						<stop  offset="0.4709" style="stop-color:#9F6319"/>
						<stop  offset="1" style="stop-color:#AB6D1B"/>
					</linearGradient>
					<path style="fill:url(#SVGID_00000128466495956118663300000009721670250329107602_);" d="M779.85,693.27
						c-29.1-4.42-63.18,7.66-70.68,35.16c-12.61,46.23,12.45,102.53,62.4,110.24c36.75,5.67,51.24-43.84,53.76-72.22
						c1.41-15.84,1.59-32.45-5.14-46.86C813.21,704.63,797.44,695.94,779.85,693.27z"/>
					
						<linearGradient id="SVGID_00000095338189042998568100000013519051674490681012_" gradientUnits="userSpaceOnUse" x1="539.0452" y1="674.2459" x2="627.7721" y2="674.2459" gradientTransform="matrix(-1 0 0 -1 1365.1696 1440)">
						<stop  offset="0" style="stop-color:#915716"/>
						<stop  offset="0.4709" style="stop-color:#9F6319"/>
						<stop  offset="1" style="stop-color:#AB6D1B"/>
					</linearGradient>
					<path style="fill:url(#SVGID_00000095338189042998568100000013519051674490681012_);" d="M755.85,809.63
						c-2.31-6.92,4.62-13.84,2.31-18.46c-2.31-6.92-16.15-9.23-20.76-18.46c0-4.62,0-9.23,0-13.84
						c7.51-18.77,36.4-46.71,27.02-66.41c5.19-0.22,10.39,0.03,15.44,0.8c17.59,2.67,33.35,11.36,40.34,26.31
						c6.73,14.41,6.55,31.02,5.14,46.86c-2.52,28.38-17.01,77.89-53.76,72.22c-0.76-0.12-1.49-0.28-2.24-0.42
						C773.72,826.76,760.04,820.1,755.85,809.63z"/>
					
						<linearGradient id="SVGID_00000113339848220602617210000003446007656420516773_" gradientUnits="userSpaceOnUse" x1="553.3247" y1="526.6543" x2="661.3696" y2="526.6543" gradientTransform="matrix(-1 0 0 -1 1365.1696 1440)">
						<stop  offset="0" style="stop-color:#A34DF7"/>
						<stop  offset="0.2172" style="stop-color:#904FF6"/>
						<stop  offset="0.6534" style="stop-color:#6054F2"/>
						<stop  offset="1" style="stop-color:#3658EF"/>
					</linearGradient>
					<path style="fill:url(#SVGID_00000113339848220602617210000003446007656420516773_);" d="M806.8,897.81
						c-1.81-10.98-3.62-21.96-5.43-32.94c-1.74-10.54-12.84-22.66-22.52-10.94c-0.84,1.01-1.37,2.23-2.02,3.38
						c-3.46,6.13-10.93,9.99-17.8,8.47c-6.87-1.53-12.14-8.88-10.63-15.76c-8.94-0.56-28.46-0.92-34.3,7.2
						c-17.18,23.87-9.38,49.07-1.67,74.32c1.12,3.66,2.24,7.34,2.76,11.13c1,7.2-0.17,14.68,1.73,21.7
						c4.89,18.12,31.91,12.45,46.01,11.94c10.35-0.37,27.85,1.58,37.31-3.6c7.09-3.86,4.39-14.12,4.47-20.41
						c0.1-7.74,4.68-11.01,6.66-18.16c0.86-3.12,0.34-6.44-0.18-9.64C809.74,915.61,808.27,906.71,806.8,897.81z"/>
					
						<linearGradient id="SVGID_00000091008879908293837070000005285153771599676080_" gradientUnits="userSpaceOnUse" x1="866.5152" y1="416.3047" x2="994.8694" y2="416.3047" gradientTransform="matrix(-1 0 0 -1 1700.9454 1440)">
						<stop  offset="0" style="stop-color:#EF4136"/>
						<stop  offset="0.3194" style="stop-color:#F2663E"/>
						<stop  offset="0.7737" style="stop-color:#F69649"/>
						<stop  offset="1" style="stop-color:#F7A94D"/>
					</linearGradient>
					<path style="fill:url(#SVGID_00000091008879908293837070000005285153771599676080_);" d="M713.79,1080.54
						c6.36,3.02,13.63,3.34,20.66,3.61c15.29,0.59,30.55,1.17,45.84,1.76c7.38,0.27,14.78,0.54,22.08-0.51
						c9.36-1.31,18.26-4.78,27.05-8.21c9.76-3.79,2.54-48.01,0.94-58.06c-1.82-11.34-3.39-22.91-7.19-33.81
						c-0.99-2.84-2.56-5.56-4.3-8.26c-0.48-0.75-0.96-1.47-1.47-2.19c-3.02-4.55-6.15-9.04-7.22-13.63
						c-8.93,7.56-21.87,7.4-33.57,6.84c-21.57-1.07-43.17-2.11-64.74-3.15c1.68,1.98,2.33,4.92,2.3,8.31c0,0.8-0.05,1.6-0.14,2.46
						c-0.83,10.21-6.17,23.52-7.08,29.94c-0.14,1.02-0.27,2-0.37,2.99c-0.11,1.15-0.22,2.3-0.29,3.42
						C704.62,1036.83,713.84,1055.79,713.79,1080.54z"/>
					<path class="st43" d="M801.28,981.04c0.82,5.34,1.42,14.86,6.79,17.24c6.1,2.71,13.48,3.92,19.9,5.79
						c1.5,0.44,0.87,2.8-0.65,2.35c-4.19-1.22-8.38-2.44-12.56-3.66c-3-0.87-8.38-1.27-10.76-3.17c-1.5-1.2-2-4.66-2.51-6.33
						c-1.15-3.8-1.95-7.66-2.55-11.58C798.69,980.15,801.04,979.49,801.28,981.04z"/>
					<path class="st43" d="M706.28,1012.05c0.16-0.05,0.29-0.14,0.43-0.27c4.01-3.87,8.37-6.6,13.55-8.61
						c2.08-0.8,4.44-1.36,6.01-3.1c1.76-1.9,1.79-4.06,1.85-6.52c0.11-5-0.27-10.05-0.4-15.05c0-0.05-0.03-0.11-0.05-0.19
						c30.23,4.97,61.08,4.57,91.2-1.26c-0.48-0.75-0.96-1.47-1.47-2.19c-34.19,6.49-69.26,5.94-103.23-1.63
						c0,0.8-0.05,1.6-0.14,2.46c3.77,0.85,7.56,1.58,11.38,2.25c-0.08,0.16-0.16,0.35-0.14,0.56c0.11,4.3,0.24,8.61,0.32,12.91
						c0.14,5.08-1.23,7.43-5.99,9.41c-4.89,2-9.14,4.38-13.05,7.8C706.47,1009.78,706.36,1010.93,706.28,1012.05z"/>
					
						<linearGradient id="SVGID_00000164507666600968593630000008123437476825658538_" gradientUnits="userSpaceOnUse" x1="531.8338" y1="708.3369" x2="669.1077" y2="708.3369" gradientTransform="matrix(-1 0 0 -1 1365.1696 1440)">
						<stop  offset="0" style="stop-color:#5C3117"/>
						<stop  offset="0.417" style="stop-color:#673A1F"/>
						<stop  offset="1" style="stop-color:#734428"/>
					</linearGradient>
					<path style="fill:url(#SVGID_00000164507666600968593630000008123437476825658538_);" d="M696.07,733.04
						c0.26-12.79,4.99-25.1,14.6-34.29c21.3-20.38,57.79-21.12,83.56-9.73c25.72,11.36,45.24,44.02,37.32,71.92
						c-2.04,7.2-5.28,13.99-8.51,20.74c2.86-5.98-2.86-28.32-5.29-34.64c-2.98-7.78-10.76-11.97-14.32-19.51
						c-1.77,8.18-6.84,20.45-16.82,20.69c-10.65,0.26-14.82-14.27-13.81-22.87c-0.51,7.21-5.21,16.23-12.95,17.49
						c-9.97,1.63-11.94-8.34-13.28-16.27c2.29,13.53-10.11,23-22.29,19.35c2.76,9.71,2.26,32.42-12.23,33.7
						c-14.61,1.29-13.92-27.82-15.31-36.76C696.23,739.59,696,736.3,696.07,733.04z"/>
					
						<linearGradient id="SVGID_00000026136021408834315740000013823316445464391300_" gradientUnits="userSpaceOnUse" x1="567.8949" y1="743.609" x2="684.473" y2="743.609" gradientTransform="matrix(-1 0 0 -1 1365.1696 1440)">
						<stop  offset="0" style="stop-color:#9C5B36"/>
						<stop  offset="0.5695" style="stop-color:#824C2D"/>
						<stop  offset="1" style="stop-color:#734428"/>
					</linearGradient>
					<path style="fill:url(#SVGID_00000026136021408834315740000013823316445464391300_);" d="M767.38,696.59
						c13.84,13.84-2.31,34.6-18.46,32.3c-4.91-1.64-10.97-4.45-13.26-9.24c0.4-2.06,0.26-4.37-0.59-6.91
						c-0.67,2.68-0.35,4.96,0.59,6.91c-1.76,9.16-14.24,13.43-23.66,11.55c-6.92-2.31-2.31-11.54-6.92-13.84
						c-4.62,6.92-11.54,16.15-18.46,11.54c-2.44-1.74-4.36-3.84-5.94-6.14c3.6-3.6,8.14-6.03,12.22-4.56
						c-10.93-17.25,7.26-40.19,26.41-27.99c-2.46-9.07,2.97-17.56,10.5-21.96c8.2-4.79,18.91-4.76,24.66,4.61
						c8.53-8.09,9.59-13.77,24.27-11.01c9.8,1.85,15.8,7.64,18.53,16.56C795.12,692.01,781.27,698.57,767.38,696.59z"/>
					
						<linearGradient id="SVGID_00000096765976834377643670000016943649485256502932_" gradientUnits="userSpaceOnUse" x1="652.0646" y1="655.9272" x2="664.711" y2="655.9272" gradientTransform="matrix(-1 0 0 -1 1365.1696 1440)">
						<stop  offset="0" style="stop-color:#915716"/>
						<stop  offset="0.4709" style="stop-color:#9F6319"/>
						<stop  offset="1" style="stop-color:#AB6D1B"/>
					</linearGradient>
					<path style="fill:url(#SVGID_00000096765976834377643670000016943649485256502932_);" d="M707.35,771.34
						c-1.22-0.7-2.86-0.14-3.8,0.91c-0.94,1.05-1.34,2.46-1.7,3.83c-1.15,4.43-2.06,9.15-0.73,13.53c1.33,4.38,5.63,8.17,10.14,7.41
						C715.79,796.26,711,773.44,707.35,771.34z"/>
				</g>
				<path class="st43" d="M772.88,1078.24c9.17,3.9,21.17,1.5,30.63-0.3c10.88-2.08,21.48-5.61,31.41-10.49
					c-1.34,0.66-1.28,12.94-2.03,14.97c-1.94,5.24-7.18,5.56-11.99,7.71c-9.31,4.16-21.38,3.93-31.42,3.99
					c-3.21,0.02-6.5,0.02-9.53-1.02C772.91,1090.66,772.89,1084.52,772.88,1078.24z"/>
				<path class="st43" d="M729.43,1079.29c4.93,0.65,9.9,1.08,14.87,1.26c5.35,0.19,10.71,0.12,16.04-0.23
					c2.51-0.17,4.99-0.5,7.49-0.69c1.47-0.11,2.91,0.17,4.35,0.19c-0.1-0.16-0.17-0.34-0.18-0.57c-0.7-10.69-4.49-20.5-11.2-28.86
					c-0.97-1.22,0.74-2.95,1.73-1.73c3.41,4.26,6.1,8.85,8.07,13.73c3.3-4.23,6.6-8.45,9.9-12.68c0.97-1.24,2.68,0.5,1.73,1.73
					c-3.46,4.43-6.92,8.86-10.38,13.3c-0.09,0.11-0.19,0.18-0.29,0.25c1.56,4.53,2.55,9.29,2.88,14.26c0.04,0.59-0.28,0.96-0.7,1.1
					c0.42,1.03,0.64,2.25,0.4,3.31c-0.11,0.47-0.3,0.91-0.39,1.39c-0.14,0.8,0.05,1.61,0.08,2.42c0.05,1.78-0.7,3.47-1.44,5.09
					c-0.83,1.82-4.22,1.87-5.97,1.99c-5.47,0.39-10.94,0.95-16.43,1.46c-8.44,0.78-16.97,0.95-25.39-0.22
					c-4.87-0.67-6.65-3.61-7.56-8.25c-0.7-3.59-1.07-7.23-1.09-10.89C719.61,1078.6,725.37,1078.75,729.43,1079.29z"/>
				
					<linearGradient id="SVGID_00000014618500715384450200000011799126400060540584_" gradientUnits="userSpaceOnUse" x1="498.749" y1="635.9841" x2="551.4028" y2="635.9841" gradientTransform="matrix(1.0272 0.4145 0.3843 -0.9522 80.474 1304.5931)">
					<stop  offset="0" style="stop-color:#915716"/>
					<stop  offset="0.4709" style="stop-color:#9F6319"/>
					<stop  offset="1" style="stop-color:#AB6D1B"/>
				</linearGradient>
				<path style="fill:url(#SVGID_00000014618500715384450200000011799126400060540584_);" d="M830.63,931.32
					c21.65-17.19,43.46-34.19,65.43-51.01c2.66-2.03,6.14-4.16,9.37-2.71c4.88,2.2,3.07,9.03,0.32,13.17
					c-14.69,22.11-33.88,41.06-53.08,59.73c-7.87,7.66-18.69,15.69-27.99,2.51C818.77,944.65,824.07,936.53,830.63,931.32z"/>
			</g>
			<g>
				
					<linearGradient id="SVGID_00000080189692349773758830000003625914561807786624_" gradientUnits="userSpaceOnUse" x1="751.3944" y1="1133.0105" x2="821.4044" y2="1133.0105" gradientTransform="matrix(0.7071 0.7071 -0.7071 0.7071 952.6512 -442.5642)">
					<stop  offset="0" style="stop-color:#915716"/>
					<stop  offset="0.4709" style="stop-color:#9F6319"/>
					<stop  offset="1" style="stop-color:#AB6D1B"/>
				</linearGradient>
				<path style="fill:url(#SVGID_00000080189692349773758830000003625914561807786624_);" d="M689.2,944.26
					c-1.31,6.17-9.49,27.68,1.57,28.48c20.82,1.5,28.2-35.18,32.96-49.49c1.94-5.82,3.87-11.63,5.81-17.45
					c4.07-12.23,10.01-65.29-16.94-45.39C694.67,873.67,693.4,924.6,689.2,944.26z"/>
				
					<linearGradient id="SVGID_00000177475231029871084200000007619396994706174138_" gradientUnits="userSpaceOnUse" x1="1025.4608" y1="690.598" x2="1078.1196" y2="690.598" gradientTransform="matrix(-0.9975 0.0711 -0.0711 -0.9975 1772.6312 1540.0718)">
					<stop  offset="0" style="stop-color:#915716"/>
					<stop  offset="0.4709" style="stop-color:#9F6319"/>
					<stop  offset="1" style="stop-color:#AB6D1B"/>
				</linearGradient>
				<path style="fill:url(#SVGID_00000177475231029871084200000007619396994706174138_);" d="M699.31,949.76
					c-13.95-22.48-28.09-44.83-42.42-67.06c-1.73-2.68-4.15-5.71-7.33-5.35c-4.8,0.55-5.11,7.42-3.87,12.08
					c6.62,24.91,17.97,48.27,29.4,71.38c4.69,9.47,11.82,20.19,23.41,10.83C705.88,965.69,703.54,956.57,699.31,949.76z"/>
			</g>
			
				<linearGradient id="SVGID_00000026137880260714915350000014930875130163438220_" gradientUnits="userSpaceOnUse" x1="743.374" y1="111.1117" x2="812.5093" y2="111.1117" gradientTransform="matrix(-1 0 0 -1 1700.9454 1440)">
				<stop  offset="0" style="stop-color:#EF4136"/>
				<stop  offset="0.2904" style="stop-color:#EF4437"/>
				<stop  offset="0.4734" style="stop-color:#F04C38"/>
				<stop  offset="0.6267" style="stop-color:#F15B3C"/>
				<stop  offset="0.7637" style="stop-color:#F37040"/>
				<stop  offset="0.8886" style="stop-color:#F58A46"/>
				<stop  offset="1" style="stop-color:#F7A94D"/>
			</linearGradient>
			<path style="fill:url(#SVGID_00000026137880260714915350000014930875130163438220_);" d="M937.43,1322.1
				c-7.51,2.62-15.52,3.64-22.99,6.38c0.31-2.66,0.22-5.36-0.28-7.99c-8.99,5.57-18.21,11.35-24.56,19.81
				c-0.95,1.26-1.76,3.22-0.57,4.24c0.49,0.42,1.16,0.51,1.79,0.58c13.53,1.55,27.61,0.77,40.16-4.52
				c7.78-3.28,15.71-8.35,23.98-6.62c1.69,0.36,4.6-20.18,0.59-21.95C952.65,1310.77,941.46,1320.69,937.43,1322.1z"/>
		</g>
	</g>
</g>
</svg>
