<?xml version="1.0" encoding="utf-8"?>
<!-- Generator: Adobe Illustrator 28.0.0, SVG Export Plug-In . SVG Version: 6.00 Build 0)  -->
<svg version="1.1" id="Layer_1" xmlns="http://www.w3.org/2000/svg" xmlns:xlink="http://www.w3.org/1999/xlink" x="0px" y="0px"
	 viewBox="0 0 1440 1440" style="enable-background:new 0 0 1440 1440;" xml:space="preserve">
<style type="text/css">
	.st0{fill:#F2E4F2;}
	.st1{fill:#B9E9FC;}
	.st2{fill:#E64B55;}
	.st3{fill:#9A9CDE;}
	.st4{fill:none;stroke:#8E90CE;stroke-width:1.0556;stroke-miterlimit:10;}
	.st5{fill:#ACAFFA;}
	.st6{fill:none;stroke:#ACAFFA;stroke-width:1.5789;stroke-miterlimit:10;}
	.st7{fill:none;stroke:#8E90CE;stroke-width:2.2066;stroke-miterlimit:10;}
	.st8{fill:#41378C;}
	.st9{fill:#FFB49B;}
	.st10{fill:#AB51A6;}
	.st11{fill:#BE5AB9;}
	.st12{fill:#FFA587;}
	.st13{fill:#F5876E;}
	.st14{fill:none;stroke:#8E90CE;stroke-width:0.8234;stroke-miterlimit:10;}
	.st15{fill:url(#SVGID_1_);}
	.st16{fill:#BC0000;stroke:#FFFFFF;stroke-width:4;stroke-miterlimit:10;}
	.st17{fill:#FF6473;}
</style>
<g>
	<ellipse class="st0" cx="270.36" cy="1208.52" rx="149.4" ry="13.01"/>
	<path class="st1" d="M504.59,1150.24c-51.27-6.18-101.65-18.5-149.76-37.24c-67.5-26.3-141.27-69.07-135.81-129.34
		c14.76-162.69,139.53-111.78,155.83-161.14c16.3-49.36-152.81-181.63-125.87-340.25c21.16-124.58,203.05-205.48,377.61-91.75
		s316.93,222.45,425.24,229.65c75.92,5.05,118.88-55.56,210.7,0.21c95.54,58.03,121.01,230.69-4.64,372.67
		c-35.28,39.87-98.64,80.13-162.45,114.27c-113.31,60.64-278.4,69.81-405.99,54.42L504.59,1150.24z"/>
	<path class="st2" d="M526.24,745.19c-4.9-19.34-27.9-28.4-44.43-17.22c-18.25,12.34-31.39,37.31-44.08,40.14
		c-18.53,4.13-74.19-30.02-74.19-30.02l10.03,30.51c0,0,47.71,45.94,69.24,44.7c14.63-0.84,41.83-25.16,65.8-34.58
		C521.98,773.45,529.67,759.13,526.24,745.19C526.19,744.98,526.29,745.38,526.24,745.19z"/>
	<g>
		<path class="st3" d="M428.81,1178.7c0,0-20.76-86.62-139.88-106.93c-41.06-7-85.24,58.61-1.93,64.61
			C321.42,1138.86,367.73,1131.99,428.81,1178.7z"/>
		<path class="st4" d="M277.32,1100.78c0,0,118.27,6.74,171.52,109.54"/>
	</g>
	<g>
		<path class="st5" d="M603.38,742.94c-13.95,10.58-17.28,29.68-17.28,29.68s19.29,1.95,33.24-8.63s21.68-23.86,17.28-29.68
			C632.21,728.5,617.33,732.36,603.38,742.94z"/>
		<path class="st5" d="M572.54,786.48c-11.95,5.68-17.35,19.31-17.35,19.31s13.98,4.41,25.93-1.27s19.72-14.33,17.35-19.31
			S584.49,780.8,572.54,786.48z"/>
		<path class="st5" d="M558.78,771.67c-4.33,12.5,1.59,25.91,1.59,25.91s12.95-6.87,17.28-19.37s3.62-24.1-1.59-25.91
			C570.85,750.49,563.12,759.17,558.78,771.67z"/>
		<path class="st5" d="M553.67,815.01c-15.3,4.54-24.28,19.77-24.28,19.77s15.83,7.86,31.14,3.32c15.3-4.54,26.17-13.4,24.28-19.77
			C582.91,811.95,568.97,810.47,553.67,815.01z"/>
		<path class="st5" d="M525.45,800.49c-3.53,15.57,5.35,30.85,5.35,30.85s14.61-9.95,18.14-25.52s1.14-29.38-5.35-30.85
			C537.1,773.5,528.98,784.92,525.45,800.49z"/>
		<path class="st5" d="M540.81,847.99c-15.94,0.91-28.17,13.67-28.17,13.67s13.6,11.29,29.54,10.38s28.55-7.03,28.17-13.67
			C569.98,851.73,556.75,847.08,540.81,847.99z"/>
		<path class="st5" d="M523.4,884.59c-17.04,0.24-30.67,13.28-30.67,13.28s13.99,12.66,31.02,12.42
			c17.04-0.24,30.76-6.18,30.67-13.28C554.32,889.91,540.43,884.35,523.4,884.59z"/>
		<path class="st5" d="M507.76,921.09c-16.97-1.5-31.86,10.09-31.86,10.09s12.63,14.02,29.6,15.52c16.97,1.5,31.23-3.02,31.86-10.09
			C537.98,929.53,524.73,922.59,507.76,921.09z"/>
		<path class="st5" d="M490.07,962.64c-16.99,1.31-29.77,15.19-29.77,15.19s14.76,11.75,31.75,10.44s30.31-8.11,29.77-15.19
			C521.27,966,507.05,961.33,490.07,962.64z"/>
		<path class="st5" d="M511.8,829.04c7.17,14.26,2.21,31.23,2.21,31.23s-16.57-6.16-23.74-20.42s-8.16-28.25-2.21-31.23
			C494.01,805.63,504.64,814.77,511.8,829.04z"/>
		<path class="st5" d="M484.5,865.92c10.47,13.44,8.82,32.23,8.82,32.23s-18.63-2.99-29.1-16.43s-14.42-27.87-8.82-32.23
			S474.03,852.48,484.5,865.92z"/>
		<path class="st5" d="M465.81,900.96c11.79,12.3,12.06,31.17,12.06,31.17s-18.84-1.08-30.62-13.38
			c-11.79-12.3-17.18-26.26-12.06-31.17C440.31,882.66,454.02,888.66,465.81,900.96z"/>
		<path class="st5" d="M454.61,945.62c9.6,14.07,6.77,32.73,6.77,32.73s-18.4-4.16-28.01-18.23c-9.6-14.07-12.64-28.72-6.77-32.73
			S445.01,931.55,454.61,945.62z"/>
		<path class="st5" d="M475.4,1006.03c-16.35,4.79-26,21-26,21s16.87,8.46,33.22,3.67c16.35-4.79,27.99-14.19,26-21
			C506.63,1002.89,491.76,1001.24,475.4,1006.03z"/>
		<path class="st5" d="M437.2,996.69c12.3,11.79,13.38,30.62,13.38,30.62s-18.86-0.28-31.16-12.07
			c-12.3-11.79-18.29-25.5-13.38-30.62C410.95,979.5,424.9,984.9,437.2,996.69z"/>
		<path class="st5" d="M467.36,1052.69c-15.88,6.16-24.12,23.14-24.12,23.14s17.52,6.99,33.41,0.83s26.68-16.52,24.11-23.14
			C498.2,1046.9,483.25,1046.53,467.36,1052.69z"/>
		<path class="st5" d="M428.5,1046.64c13.26,10.7,15.93,29.38,15.93,29.38s-18.82,1.33-32.08-9.37s-20.39-23.85-15.93-29.38
			C400.88,1031.74,415.24,1035.94,428.5,1046.64z"/>
		<path class="st6" d="M602.88,760.66c0,0-80.72,50.23-128.77,179.83c-48.04,129.6-30.22,248.36-30.22,248.36"/>
	</g>
	<g>
		<path class="st3" d="M427.05,1134.13c0,0,15.82-185.52-207.16-304.21c-76.86-40.91-207.68,60.19-46.35,126.91
			C240.21,984.4,336.6,1001.25,427.05,1134.13z"/>
		<path class="st7" d="M177.76,879.82c0,0,230.21,91.2,268.22,330.2"/>
	</g>
	<path class="st8" d="M171.8,1182.73c-5.09,5.71,0.92,11.05,8.12,16.74c2.09,1.66,4.69,2.56,7.36,2.56h12.43
		c1.32,0,2.24-1.33,1.78-2.56c-1.75-4.67-8.68-5.58-10-7.38C183.81,1181.72,175.61,1178.46,171.8,1182.73z"/>
	<path class="st9" d="M185.31,1167.13l-6.33,12.29c-2.03,3.86-1.56,6.36,0.26,7.68l0,0c1.83,1.33,4.38,1,5.81-0.75l11.61-13.13
		L185.31,1167.13z"/>
	<path class="st8" d="M348.12,1197.85c-2.11,8.52,3.83,9.63,14.39,11.61s18.43,1.88,18.94-0.85c0.48-2.54-3.45-5.8-12.82-11.07
		C357.38,1191.23,349.5,1192.3,348.12,1197.85z"/>
	<path class="st9" d="M354.86,1181.48l-0.87,13.8c-0.34,2.22,1.1,4.32,3.3,4.8l0,0c2.21,0.49,4.41-0.84,5.02-3.02l5.37-16.68
		L354.86,1181.48z"/>
	<path class="st10" d="M405.03,848.3c0,0,28.54,16.59,26.9,57.16c-1.55,38.5-55.28,257.46-61.52,278.4c-0.3,1.02-1.24,1.73-2.3,1.7
		c-4.54-0.15-9.09-1.23-13.67-3.95c-0.75-0.45-1.19-1.3-1.15-2.17l10.88-243.15c1.47-32.86,11.37-64.79,28.76-92.71l0.14-0.22
		L405.03,848.3z"/>
	<path class="st11" d="M397.58,853.62l-23.64,1.01c-36.79,1.58-67.98,27.58-76.15,63.49l-5.77,25.38
		c-36.84,77.54-101.9,203.01-111.43,221.36c-0.71,1.36-0.49,3.05,0.61,4.12c3.9,3.77,8.03,6.22,12.34,7.67
		c1.81,0.61,3.8,0.03,5.01-1.44c13.67-16.65,96.73-117.84,113.07-138.09C424.42,897.32,397.58,853.62,397.58,853.62z"/>
	<path d="M210.8,758.56c4.6-1.3,8.26-4.68,9.71-9.24c0.49-1.56,1.09-3.11,1.78-4.63c4.96-10.84,13.59-18.44,23.14-21.89
		c23.75-8.58,23.04-20.4,36.27-25.99c4.36-1.85,8.33-5.26,10.88-9.57c1.99-3.36,4.59-6.59,7.75-9.47
		c13.13-11.97,33.49-15.91,44.91-9.08c11.65,6.98,17.07,11.04,22.16,23.52c3.18,7.81,6.59,35.28,1.15,45.92
		c-3.62,7.09-13.4,0.14-18.52,2.23c-7.11,2.91-13.85,8.4-18.27,15.33c-2.74,4.29-6.55,8.25-11.11,11.66
		c-9.99,7.45-18.73,8.25-25.34,7.53c-6.73-0.74-13.44,1.77-17.96,6.81c-9.92,11.05-25.01,16.12-38.23,11.29
		c-4.07-1.49-8.61-0.73-12.28,1.57c-4.28,2.69-9.65,3.78-15.34,2.41c-6.27-1.51-11.55-6.18-13.75-12.24
		C193.58,773.29,200.13,761.58,210.8,758.56z"/>
	<path class="st2" d="M405.03,857.44c0,0,10.79-60.81,0.4-85.4c-6.41-15.16-24.63-41.98-55.3-35.7
		c-20.45,4.19-53.67,0.61-47.33,52.45c2.68,21.87,14.73,59.75,39.29,79.84C342.09,868.64,377.93,880.27,405.03,857.44z"/>
	<path class="st12" d="M350,754.1L350,754.1c-5.93,1.21-11.71-2.61-12.93-8.53l-7.25-35.41l21.46-4.39l7.25,35.41
		C359.75,747.1,355.93,752.89,350,754.1z"/>
	<path class="st13" d="M354.79,733.76L354.79,733.76c0.73-0.15,1.43-0.37,2.11-0.62l-5.6-27.38l-21.46,4.39l0.82,4
		C332.83,724.82,344.12,735.94,354.79,733.76z"/>
	<path class="st9" d="M356.27,727.56L356.27,727.56c-9.39,1.92-24.32-6.86-26.24-16.25c0,0-3.72-14.93-2.08-19.59
		c5.64-16.05,23.03-17.61,30.47-13.08c4.78,2.91,5.74,16.24,5.63,25.72C363.93,713.93,360.38,726.72,356.27,727.56z"/>
	<path class="st12" d="M321.17,704.01c0.86,4.2,4.92,6.91,9.07,6.06l-3.11-15.2C322.98,695.72,320.31,699.81,321.17,704.01z"/>
	<path class="st12" d="M361.22,682.41l-30.33,5.87l1.29,6.31c-2.89,0.76-5.26-0.09-4.65,2.91c0.16,0.78,1.01,5.24,1.43,5.86
		c0.65-0.41,1.26-0.89,1.76-1.45c1.08-1.18,2.54-1.9,4.11-2.23c3.43-0.72,6.36-2.58,8.48-5.14c2.95-3.57,7.37-5.04,11.87-6.14
		C361.22,686.9,361.22,682.41,361.22,682.41z"/>
	<path d="M345.47,649.24c-5.4,1.27-9.72,4.77-12.19,9.32c-2.59,4.77-7.04,8.12-12.05,10.2c-0.06,0.02-0.12,0.05-0.18,0.07
		c-5.54,2.39-9.22,8.04-9.09,14.08c0.02,0.8,0.09,1.58,0.22,2.33c0.43,2.5,0.47,5.1-0.25,7.53c-0.34,1.13-0.41,2.34-0.16,3.57
		c0.87,4.26,5.26,6.95,9.8,6.02c1.88-0.39,3.49-1.34,4.66-2.63c1.08-1.18,2.53-1.89,4.09-2.22c3.42-0.72,6.33-2.57,8.44-5.12
		c2.94-3.56,7.21-5.91,11.82-6.12c0.97-0.04,1.95-0.16,2.94-0.36c10.34-2.12,16.94-12.35,14.52-22.7
		C365.78,653.55,355.15,646.97,345.47,649.24z"/>
	<g>
		<path class="st3" d="M446.86,1176.89c0,0-4.15-79.2,47.44-128.89c23.4-22.54,80.63,2.98,28.27,41.74
			C500.93,1105.76,467.56,1120.59,446.86,1176.89z"/>
		<path class="st14" d="M514.06,1062.25c0,0-75.08,53.87-67.19,143.83"/>
	</g>
	<g>
		<g>
			
				<linearGradient id="SVGID_1_" gradientUnits="userSpaceOnUse" x1="325.7027" y1="549.2942" x2="325.7027" y2="1320.5046" gradientTransform="matrix(0.9891 -0.147 -0.147 -0.9891 446.3129 1575.3585)">
				<stop  offset="0.5045" style="stop-color:#1EA1DB"/>
				<stop  offset="0.5209" style="stop-color:#1D9FDA"/>
				<stop  offset="0.8294" style="stop-color:#087FC9"/>
				<stop  offset="1" style="stop-color:#0073C3"/>
			</linearGradient>
			<path class="st15" d="M574.37,221.37C430.5,242.75,331.2,376.7,352.57,520.58c21.38,143.87,335.13,463.6,335.13,463.6
				s207.25-397.14,185.87-541.01C852.2,299.3,718.24,200,574.37,221.37z M648.55,657.29c-104.24,20.93-203.35-52.53-213.63-158.36
				c-8.8-90.61,53.42-174.55,142.67-192.47c104.24-20.93,203.34,52.53,213.63,158.36C800.03,555.43,737.81,639.37,648.55,657.29z"/>
			<path class="st16" d="M586.78,304.86c-97.76,14.53-165.24,105.55-150.72,203.32S541.61,673.42,639.38,658.9
				c97.76-14.53,165.24-105.55,150.72-203.32S684.54,290.33,586.78,304.86z M635.5,632.77c-83.34,12.38-160.93-45.14-173.32-128.48
				c-12.38-83.34,45.14-160.93,128.48-173.32c83.34-12.38,160.93,45.14,173.32,128.48C776.35,542.79,718.83,620.39,635.5,632.77z"/>
		</g>
	</g>
	<g>
		<path class="st9" d="M476.37,794.08l15.59-9.09c2.51-1.46,4.28-3.92,4.92-6.75c1.04-4.59,3.84-11.1,5.47-10.86
			c3.03,0.45-1.75,10.12,1.04,11.38c0.83,0.38,20.01-15.13,21.09-12.88c0.84,1.76-10.74,9.08-10.22,9.79
			c0.51,0.7,20.09-10.47,20.81-8.83c0.69,1.59-16.93,12.12-15.7,12.8c1.81,0.99,15.72-8.83,17.84-6.71
			c1.42,1.42-18.03,11.93-17.84,13.06c0.24,1.41,13.43-5.28,13.73-3.54c0.42,2.41-23.24,11.62-23.24,11.62l-30.02,11.73
			L476.37,794.08z"/>
		<path class="st17" d="M488.07,784.9c-13.19-13.84-30.56-1.78-45.56,3.99l-47.34,14.37c0,0-38.51-31.18-53.06-41.05
			c-4.75-3.22-11.05-2.96-15.5,0.67l0,0c-5.13,4.18-6,11.66-1.99,16.93c23.52,30.99,60.87,65.1,78.23,63.35
			c17.21-1.74,74.08-6.86,87.48-25.1C497.6,808.15,496.45,793.88,488.07,784.9C488.07,784.9,488.24,785.07,488.07,784.9z"/>
	</g>
</g>
</svg>
