<?xml version="1.0" encoding="utf-8"?>
<!-- Generator: Adobe Illustrator 28.0.0, SVG Export Plug-In . SVG Version: 6.00 Build 0)  -->
<svg version="1.1" id="Layer_1" xmlns="http://www.w3.org/2000/svg" xmlns:xlink="http://www.w3.org/1999/xlink" x="0px" y="0px"
	 viewBox="0 0 1440 1440" style="enable-background:new 0 0 1440 1440;" xml:space="preserve">
<style type="text/css">
	.st0{fill:#1EA1DB;}
</style>
<g>
	<g>
		<polygon class="st0" points="649.48,801.01 618.96,801.01 618.96,763.13 		"/>
		<polygon class="st0" points="672.03,829.02 705.09,870.04 618.96,870.04 618.96,829.02 		"/>
		<polygon class="st0" points="734.68,829.02 820.58,829.02 820.58,870.04 767.67,870.04 		"/>
		<polygon class="st0" points="790.21,898.1 820.58,898.1 820.58,935.9 		"/>
		<path class="st0" d="M764.15,439.29c43.23-28.25,118.21-89.34,118.21-173.88v-32.48H557.64v32.48
			c0,84.53,74.96,145.62,118.19,173.88c-217.71,33.45-402.3,306.28-402.3,524.24c0,134.3,109.23,243.53,243.53,243.53h405.88
			c134.3,0,243.53-109.23,243.53-243.53C1166.47,745.57,981.88,472.74,764.15,439.29z M925.16,829.02h-54.51v41.02h54.51v28.06
			h-54.51v126.62h-41.04L727.71,898.1H618.96v126.62h-49.6V898.1h-54.53v-28.06h54.53v-41.02h-54.53v-28.01h54.53v-126.6h41.1
			l101.75,126.6h108.37v-126.6h50.08v126.6h54.51v28.01H925.16z"/>
	</g>
</g>
</svg>
